<svg id="enKVtYEU6gH1" xmlns="http://www.w3.org/2000/svg" xmlns:xlink="http://www.w3.org/1999/xlink" viewBox="0 0 153.66 127.3" shape-rendering="geometricPrecision" text-rendering="geometricPrecision"><g><path d="M135.82,12.12c11.86,7.03,17.84,23.66,17.84,38.97s-6.06,29.37-13.49,43.19c-7.51,13.82-16.56,27.3-28.93,31.52-12.38,4.14-28.08-1.08-43.44-6.7-15.36-5.63-30.47-11.67-38.07-22.67-7.51-11-7.51-27.06-4.78-42.7c2.73-15.72,8.28-30.95,19.29-38.14c10.92-7.28,27.4-6.45,44.55-7.28c17.24-.83,35.08-3.31,47.03,3.81Z" fill="#e5f6f6"/><g id="enKVtYEU6gH4" style="mix-blend-mode:multiply" transform="translate(0 17)" opacity="0"><circle r="3.01" transform="translate(76.35 9.6)" fill="#e5f6f6"/><path d="M76.6,11.6c-1.55,0-2.62-.89-2.62-2.44c0-.49-.05-.96.17-1.36-.41.49-.66,1.12-.66,1.8c0,1.55,1.25,2.8,2.8,2.8c1.05,0,2.14-.62,2.62-1.48-.51.61-1.45.67-2.31.67Z" fill="#b1e1e4"/><path d="M77.35,8.58c.11.09.21.19.31.28.15.14.34.28.55.3.16.02.33-.04.42-.17.14-.2.05-.47-.04-.68-.23-.54-.71-1-1.3-1.08-.21-.03-.44,0-.61.14-.09.07-.16.18-.17.3-.03.22.13.41.3.54.14.11.3.2.44.3.03.02.07.05.1.07Z" fill="#fff"/></g><g><g><path d="M6.31,102.18l-1.94,3.76v1.86h-1.37v-1.86l-1.94-3.76h1.55l1.09,2.35l1.08-2.35h1.54Z" fill="#19a7b0"/><path d="M9.66,107.49c-.44-.25-.79-.59-1.05-1.03s-.39-.93-.39-1.48.13-1.04.39-1.48.61-.78,1.05-1.02c.44-.25.92-.37,1.45-.37s1.01.12,1.45.37.79.59,1.04,1.02c.25.44.38.93.38,1.48s-.13,1.04-.38,1.48c-.26.44-.6.78-1.04,1.03s-.92.37-1.45.37-1.01-.12-1.45-.37Zm2.53-1.33c.27-.3.4-.69.4-1.18s-.13-.89-.4-1.19-.63-.44-1.08-.44-.82.15-1.08.44c-.27.29-.4.69-.4,1.19s.13.89.4,1.19.63.44,1.08.44.81-.15,1.08-.45Z" fill="#19a7b0"/><path d="M18.07,102.18v3.36c0,.34.08.59.25.78.17.18.41.27.73.27s.56-.09.74-.27c.17-.18.26-.44.26-.78v-3.36h1.37v3.35c0,.5-.11.92-.32,1.27s-.5.61-.86.78c-.36.18-.76.26-1.2.26s-.84-.09-1.19-.26-.62-.43-.83-.78c-.2-.35-.3-.78-.3-1.28v-3.35h1.37Z" fill="#19a7b0"/><path d="M27.27,107.8l-1.17-2.12h-.33v2.12h-1.37v-5.62h2.3c.44,0,.82.08,1.13.23s.55.37.7.64.23.57.23.9c0,.37-.11.71-.32,1s-.52.5-.93.62l1.3,2.22h-1.54Zm-1.5-3.09h.85c.25,0,.44-.06.56-.18s.19-.3.19-.52c0-.21-.06-.38-.19-.5s-.31-.18-.56-.18h-.85v1.39Z" fill="#19a7b0"/><path d="M38.99,102.18v1.1h-1.49v4.52h-1.37v-4.52h-1.49v-1.1h4.34Z" fill="#19a7b0"/><path d="M42.91,102.18v3.36c0,.34.08.59.25.78.17.18.41.27.73.27s.56-.09.74-.27c.17-.18.26-.44.26-.78v-3.36h1.37v3.35c0,.5-.11.92-.32,1.27s-.5.61-.86.78-.76.26-1.2.26-.84-.09-1.19-.26-.62-.43-.83-.78c-.2-.35-.3-.78-.3-1.28v-3.35h1.37Z" fill="#19a7b0"/><path d="M53.13,102.18v1.1h-1.49v4.52h-1.37v-4.52h-1.49v-1.1h4.34Z" fill="#19a7b0"/><path d="M56.8,107.49c-.44-.25-.79-.59-1.05-1.03s-.39-.93-.39-1.48.13-1.04.39-1.48.61-.78,1.05-1.02c.44-.25.92-.37,1.45-.37s1.01.12,1.45.37.79.59,1.04,1.02c.25.44.38.93.38,1.48s-.13,1.04-.38,1.48c-.26.44-.6.78-1.04,1.03s-.92.37-1.45.37-1.01-.12-1.45-.37Zm2.53-1.33c.27-.3.4-.69.4-1.18s-.13-.89-.4-1.19-.63-.44-1.08-.44-.82.15-1.08.44c-.27.29-.4.69-.4,1.19s.13.89.4,1.19.63.44,1.08.44.81-.15,1.08-.45Z" fill="#19a7b0"/><path d="M66.75,107.8l-1.17-2.12h-.33v2.12h-1.37v-5.62h2.3c.44,0,.82.08,1.13.23s.55.37.7.64.23.57.23.9c0,.37-.11.71-.32,1s-.52.5-.93.62l1.3,2.22h-1.54Zm-1.5-3.09h.85c.25,0,.44-.06.56-.18s.19-.3.19-.52c0-.21-.06-.38-.19-.5s-.31-.18-.56-.18h-.85v1.39Z" fill="#19a7b0"/><path d="M72.46,102.18v5.62h-1.37v-5.62h1.37Z" fill="#19a7b0"/><path d="M78.85,106.81h-2.1l-.34.99h-1.43l2.03-5.62h1.58l2.03,5.62h-1.45l-.34-.99Zm-.35-1.06l-.7-2.06-.69,2.06h1.38Z" fill="#19a7b0"/><path d="M84.52,106.74h1.79v1.06h-3.16v-5.62h1.37v4.56Z" fill="#19a7b0"/><path d="M98.66,102.18v5.62h-1.37v-3.37l-1.26,3.37h-1.1l-1.26-3.38v3.38h-1.37v-5.62h1.62l1.58,3.89l1.56-3.89h1.61Z" fill="#19a7b0"/><path d="M105.05,106.81h-2.1l-.34.99h-1.43l2.03-5.62h1.58l2.03,5.62h-1.45l-.34-.99Zm-.35-1.06l-.7-2.06-.69,2.06h1.38Z" fill="#19a7b0"/><path d="M112.61,107.8l-1.89-2.48v2.48h-1.37v-5.62h1.37v2.46l1.87-2.46h1.61l-2.18,2.75l2.26,2.86h-1.67Z" fill="#19a7b0"/><path d="M118.19,103.28v1.14h1.83v1.06h-1.83v1.23h2.07v1.1h-3.44v-5.62h3.44v1.1h-2.07Z" fill="#19a7b0"/><path d="M126.06,107.8l-1.17-2.12h-.33v2.12h-1.37v-5.62h2.3c.44,0,.82.08,1.13.23s.55.37.7.64.23.57.23.9c0,.37-.11.71-.32,1s-.52.5-.93.62l1.3,2.22h-1.54Zm-1.5-3.09h.85c.25,0,.44-.06.56-.18s.19-.3.19-.52c0-.21-.06-.38-.19-.5s-.31-.18-.56-.18h-.85v1.39Z" fill="#19a7b0"/></g><g><path d="M14.91,29.29v16.92h-3.39v-7.2h-7.25v7.2h-3.4v-16.92h3.39v6.96h7.25v-6.96h3.39Z" fill="#101828"/><path d="M20.75,45.57c-1.03-.57-1.85-1.39-2.44-2.44s-.88-2.26-.88-3.64.3-2.58.91-3.64c.61-1.05,1.43-1.86,2.48-2.44c1.05-.57,2.22-.86,3.51-.86s2.46.29,3.51.86s1.88,1.39,2.48,2.44.91,2.26.91,3.64-.31,2.59-.93,3.64-1.46,1.86-2.52,2.44c-1.06.57-2.24.86-3.55.86s-2.46-.29-3.49-.86Zm5.22-2.54c.54-.3.97-.75,1.3-1.35.32-.6.48-1.32.48-2.18c0-1.28-.34-2.26-1.01-2.94-.67-.69-1.49-1.03-2.46-1.03s-1.78.34-2.44,1.03-.98,1.67-.98,2.94.32,2.26.96,2.94c.64.69,1.44,1.03,2.41,1.03.61,0,1.19-.15,1.73-.45Z" fill="#101828"/><path d="M51.94,32.78L48.01,46.21h-3.66L41.9,36.83l-2.45,9.38h-3.68L31.82,32.78h3.44l2.38,10.23l2.57-10.23h3.59l2.52,10.2l2.38-10.2h3.25Z" fill="#101828"/><path d="M63.5,35.57v6.5c0,.45.11.78.33.98s.58.3,1.1.3h1.58v2.86h-2.13c-2.86,0-4.29-1.39-4.29-4.17v-6.47h-1.6v-2.79h1.6v-3.32h3.42v3.32h3v2.79h-3Z" fill="#101828"/><path d="M71.16,45.57c-1.03-.57-1.85-1.39-2.44-2.44s-.88-2.26-.88-3.64.3-2.58.91-3.64c.61-1.05,1.43-1.86,2.48-2.44c1.05-.57,2.22-.86,3.51-.86s2.46.29,3.51.86s1.88,1.39,2.48,2.44.91,2.26.91,3.64-.31,2.59-.93,3.64-1.46,1.86-2.52,2.44c-1.06.57-2.24.86-3.55.86s-2.46-.29-3.49-.86Zm5.22-2.54c.54-.3.97-.75,1.3-1.35.32-.6.48-1.32.48-2.18c0-1.28-.34-2.26-1.01-2.94-.67-.69-1.49-1.03-2.46-1.03s-1.78.34-2.44,1.03-.98,1.67-.98,2.94.32,2.26.96,2.94c.64.69,1.44,1.03,2.41,1.03.61,0,1.19-.15,1.73-.45Z" fill="#101828"/><path d="M6.07,56.17c.77-.4,1.64-.61,2.63-.61c1.15,0,2.19.28,3.11.85.93.57,1.66,1.37,2.21,2.41.54,1.04.81,2.25.81,3.62s-.27,2.59-.81,3.65-1.28,1.88-2.21,2.46-1.97.87-3.11.87c-1,0-1.88-.2-2.63-.59-.75-.4-1.35-.91-1.81-1.54v1.91h-3.39v-17.93h3.39v6.47c.44-.65,1.04-1.17,1.81-1.58Zm4.8,4.18c-.33-.59-.77-1.04-1.31-1.35s-1.13-.46-1.76-.46-1.19.16-1.73.47-.98.77-1.31,1.37-.5,1.3-.5,2.11.17,1.51.5,2.11.77,1.06,1.31,1.37c.54.32,1.12.47,1.73.47s1.22-.16,1.76-.48.98-.78,1.31-1.38.5-1.31.5-2.13-.17-1.51-.5-2.1Z" fill="#101828"/><path d="M17.24,58.83c.54-1.05,1.28-1.86,2.21-2.42.93-.57,1.97-.85,3.11-.85c1,0,1.88.2,2.63.61.75.4,1.35.91,1.81,1.53v-1.92h3.42v13.43h-3.42v-1.96c-.44.63-1.04,1.15-1.81,1.56s-1.65.62-2.65.62c-1.13,0-2.16-.29-3.09-.87s-1.67-1.4-2.21-2.46-.81-2.27-.81-3.65.27-2.56.81-3.61Zm9.27,1.54c-.32-.59-.76-1.04-1.31-1.36s-1.14-.47-1.77-.47-1.21.15-1.75.46c-.53.31-.96.76-1.3,1.35-.33.59-.5,1.29-.5,2.1s.17,1.51.5,2.12.77,1.07,1.31,1.39s1.12.48,1.73.48s1.22-.16,1.77-.47.99-.77,1.31-1.36.48-1.3.48-2.12-.16-1.53-.48-2.12Z" fill="#101828"/><path d="M37.56,58.57v6.5c0,.45.11.78.33.98s.58.3,1.1.3h1.58v2.86h-2.13c-2.86,0-4.29-1.39-4.29-4.17v-6.47h-1.6v-2.79h1.6v-3.32h3.42v3.32h3v2.79h-3Z" fill="#101828"/><path d="M53.31,56.25c.79.44,1.41,1.1,1.85,1.96s.67,1.9.67,3.11v7.88h-3.39v-7.42c0-1.07-.27-1.89-.8-2.46s-1.26-.86-2.18-.86-1.68.29-2.22.86-.81,1.39-.81,2.46v7.42h-3.39v-17.93h3.39v6.18c.44-.58,1.02-1.04,1.75-1.37s1.53-.5,2.42-.5c1.02,0,1.92.22,2.71.67Z" fill="#101828"/><path d="M71.35,63.51h-9.82c.08.97.42,1.73,1.02,2.28s1.33.82,2.21.82c1.26,0,2.16-.54,2.69-1.62h3.66c-.39,1.29-1.13,2.36-2.23,3.19s-2.45,1.25-4.05,1.25c-1.29,0-2.45-.29-3.48-.86s-1.83-1.39-2.4-2.44-.86-2.26-.86-3.64.28-2.61.85-3.66s1.36-1.86,2.38-2.42c1.02-.57,2.19-.85,3.51-.85s2.42.27,3.43.82s1.79,1.33,2.35,2.34.84,2.17.84,3.48c0,.48-.03.92-.1,1.31Zm-3.42-2.28c-.02-.87-.33-1.57-.95-2.1s-1.37-.79-2.25-.79c-.84,0-1.55.25-2.12.76s-.92,1.22-1.05,2.12h6.37Z" fill="#101828"/><path d="M0.81,80.83c.54-1.05,1.28-1.86,2.21-2.42.93-.57,1.97-.85,3.11-.85c1,0,1.88.2,2.63.61.75.4,1.35.91,1.81,1.53v-1.92h3.42v13.43h-3.42v-1.96c-.44.63-1.04,1.15-1.81,1.56s-1.65.62-2.65.62c-1.13,0-2.16-.29-3.09-.87s-1.67-1.4-2.21-2.46-.81-2.27-.81-3.65.27-2.56.81-3.61Zm9.27,1.54c-.32-.59-.76-1.04-1.31-1.36s-1.14-.47-1.77-.47-1.21.15-1.75.46c-.53.31-.96.76-1.3,1.35-.33.59-.5,1.29-.5,2.1s.17,1.51.5,2.12.77,1.07,1.31,1.39s1.12.48,1.73.48s1.22-.16,1.77-.47.99-.77,1.31-1.36.48-1.3.48-2.12-.16-1.53-.48-2.12Z" fill="#101828"/><path d="M33.35,78.25c.79.45,1.41,1.1,1.85,1.96s.67,1.9.67,3.11v7.88h-3.39v-7.42c0-1.07-.27-1.89-.8-2.46s-1.26-.86-2.18-.86-1.68.29-2.22.86-.81,1.39-.81,2.46v7.42h-3.39v-17.93h3.39v6.18c.44-.58,1.02-1.04,1.75-1.37s1.53-.5,2.42-.5c1.02,0,1.92.22,2.71.67Z" fill="#101828"/><path d="M38.95,80.83c.54-1.05,1.28-1.86,2.21-2.42.93-.57,1.97-.85,3.11-.85c1,0,1.88.2,2.63.61.75.4,1.35.91,1.81,1.53v-1.92h3.42v13.43h-3.42v-1.96c-.44.63-1.04,1.15-1.81,1.56s-1.65.62-2.65.62c-1.13,0-2.16-.29-3.09-.87s-1.67-1.4-2.21-2.46-.81-2.27-.81-3.65.27-2.56.81-3.61Zm9.27,1.54c-.32-.59-.76-1.04-1.31-1.36s-1.14-.47-1.77-.47-1.21.15-1.75.46c-.53.31-.96.76-1.3,1.35-.33.59-.5,1.29-.5,2.1s.17,1.51.5,2.12.77,1.07,1.31,1.39s1.12.48,1.73.48s1.22-.16,1.77-.47.99-.77,1.31-1.36.48-1.3.48-2.12-.16-1.53-.48-2.12Z" fill="#101828"/><path d="M75.92,79.1c1.01,1.01,1.51,2.42,1.51,4.23v7.88h-3.39v-7.42c0-1.05-.27-1.85-.8-2.41s-1.26-.84-2.18-.84-1.65.28-2.19.84-.81,1.36-.81,2.41v7.42h-3.39v-7.42c0-1.05-.27-1.85-.8-2.41s-1.26-.84-2.18-.84-1.68.28-2.22.84-.81,1.36-.81,2.41v7.42h-3.39v-13.43h3.39v1.62c.44-.57,1-1.01,1.68-1.33.69-.32,1.44-.48,2.27-.48c1.05,0,1.99.22,2.81.67s1.46,1.08,1.91,1.9c.44-.78,1.07-1.4,1.9-1.87s1.73-.7,2.7-.7c1.65,0,2.98.5,3.99,1.51Z" fill="#101828"/><path d="M82.58,90.83c-.87-.4-1.56-.93-2.07-1.61s-.79-1.43-.84-2.25h3.42c.06.52.32.95.76,1.29s1,.51,1.66.51s1.15-.13,1.51-.39.54-.59.54-.99c0-.44-.22-.76-.67-.98s-1.15-.46-2.12-.71c-1-.24-1.82-.49-2.46-.75s-1.19-.66-1.65-1.19-.69-1.25-.69-2.16c0-.74.21-1.42.64-2.04.43-.61,1.04-1.1,1.84-1.45s1.74-.53,2.82-.53c1.6,0,2.88.4,3.83,1.2s1.48,1.88,1.58,3.24h-3.25c-.05-.53-.27-.96-.67-1.27-.4-.32-.93-.47-1.59-.47-.61,0-1.09.11-1.42.34s-.5.54-.5.95c0,.45.23.8.68,1.03s1.15.47,2.11.71c.97.24,1.77.49,2.4.75s1.17.66,1.64,1.2c.46.54.7,1.26.71,2.14c0,.78-.21,1.47-.64,2.08s-1.04,1.09-1.84,1.44-1.73.52-2.8.52-2.08-.2-2.96-.59Z" fill="#101828"/><path d="M97.29,80.57v6.5c0,.45.11.78.33.98s.58.3,1.1.3h1.58v2.86h-2.13c-2.86,0-4.29-1.39-4.29-4.17v-6.47h-1.6v-2.79h1.6v-3.32h3.42v3.32h3v2.79h-3Z" fill="#101828"/><path d="M114.86,85.51h-9.82c.08.97.42,1.73,1.02,2.28s1.33.82,2.21.82c1.26,0,2.16-.54,2.69-1.62h3.66c-.39,1.29-1.13,2.36-2.23,3.19s-2.45,1.25-4.05,1.25c-1.29,0-2.45-.29-3.48-.86s-1.83-1.39-2.4-2.44-.86-2.26-.86-3.63.28-2.61.85-3.66s1.36-1.86,2.38-2.42c1.02-.57,2.19-.85,3.51-.85s2.42.28,3.43.82c1.01.55,1.79,1.33,2.35,2.34s.84,2.17.84,3.48c0,.48-.03.92-.1,1.31Zm-3.42-2.28c-.02-.87-.33-1.57-.95-2.1-.61-.53-1.37-.79-2.25-.79-.84,0-1.55.25-2.12.76s-.92,1.22-1.05,2.12h6.37Z" fill="#101828"/><path d="M122.44,78.19c.7-.4,1.51-.61,2.41-.61v3.56h-.9c-1.07,0-1.87.25-2.41.75s-.81,1.37-.81,2.62v6.69h-3.39v-13.43h3.39v2.08c.44-.71,1.01-1.27,1.71-1.67Z" fill="#101828"/></g></g><g><g style="mix-blend-mode:multiply"><ellipse rx="20.74" ry="3.64" transform="translate(95.38 72.11)" fill="#d9d9d9"/></g><path d="M111.76,45.16c-.35-.11-.76-.15-1.25-.08l-.33.99-5.36,6.2-.49.75c0,0-.01.2-.03.48-.04.11-.08.22-.12.33-.14.45-.32.97-.28,1.44.03.36.17.7.42.95.09.09.18.17.29.21.06.03.43.07.45-.01c0,0,0,0,0-.01.05.14.14.26.23.37s.19.22.31.29c.11.06.24.09.37.09.37.01.67-.16.94-.37v0c0,0,0,0,0,0c.11-.09.22-.18.33-.28l-.2-.13.05-.16c0,0,0,0,0,0c.12.31.34.54.66.5.45-.06.99-.24,1.17-.67s.19-.92.19-1.38c0,0,2.42-2.05,3.03-2.78.6-.73,1.41-1.97,1.4-3.26c0-1.05-.29-3-1.79-3.49Z" fill="#fff"/><g><g><path d="M111.33,15.77c0,0,.05.04.07.07-.02-.02-.05-.04-.07-.07Z" fill="#fff"/><path d="M111.32,15.76c-.14-.07-.29-.13-.43-.18.15.05.29.11.43.18Z" fill="#fff"/><path d="M84.76,14.55c4.44,0,8.32,1.48,10.5,4.69c2.19-3.22,6.07-4.69,10.5-4.69c1.83,0,3.56.38,5.12,1.03.51.54.98,1.12,1.38,1.75.85,1.36,1.42,2.89,1.59,4.54.04.36.05.72.05,1.07c0,1.88-.52,3.65-1.46,5.2-1.29,2.13-3.36,3.83-5.92,4.75-2.47.89-5.24,1.01-7.79.38-.51-.12-1.01-.28-1.49-.46-1.75-.66-3.62-.4-5.4-.02-1.91.42-3.71.68-5.65.83c0,.08,0,.17.02.26-.85-2.71-2.3-4.5-3.73-4.33-.32.04-.62.17-.89.4-.32.26-.62.65-.86,1.13-.42.06-.85.13-1.23.21-.83-.87-1.5-1.86-1.99-2.94-.55-1.22-.86-2.55-.88-3.94-.01-.41,0-.83.05-1.24.12-1.14.42-2.22.88-3.24.12-.26.25-.52.38-.77.07-.12.14-.25.21-.37.05-.09.11-.18.17-.28.1-.15.21-.31.32-.46.08-.11.15-.21.23-.32.09-.11.18-.23.27-.34s.19-.22.28-.33c.19-.21.39-.42.59-.62.41-.4.85-.78,1.32-1.12.23-.17.47-.34.72-.5.87-.17,1.76-.28,2.68-.28Z" fill="#fff"/><path d="M104.99,52.44c.15.12.34.25.68.32.83.16,1.05-.77,1.05-.77.03.79.02,1.34.02,1.34.44-.05.91.07,1.34-.06.29-.09.52-.26.7-.44.75-.75,1.03-1.7,1.01-2.63c0-.32-.05-.64-.11-.95-.07-.36-.17-.71-.26-1.06-.2-.71-.4-1.42-.41-2.15c0-.32,0-.64.01-.96l1.48.02c2.6-.38,3.03,2.28,3.04,3.56c0,1.3-.79,2.54-1.4,3.27-.6.72-3.03,2.78-3.03,2.78c0,.46-.01.95-.19,1.38-.18.44-.72.62-1.17.68-.21.03-.38-.07-.51-.23v0c-.38.34-.75.68-1.28.66-.13,0-.26-.03-.37-.09-.13-.07-.22-.17-.32-.28-.09-.11-.17-.23-.22-.36-.02.09-.39.04-.45.01-.11-.05-.2-.13-.29-.21-.25-.26-.38-.6-.42-.95-.04-.48.13-.99.28-1.44.17-.53.38-1.05.62-1.53l.17.11c0,0,.01,0,.02.02Z" fill="#fff"/><path d="M90.99,7.63c.97-.34,2.2-.93,3.08-1.48-.58.77-.62,1.68-.54,2.64-.06.58,0,1.18.07,1.79.07.59.38.05.57-.15.28-.31.58-.6.91-.88c1.51-1.31,3.2-2.4,5.06-2.97-.17.42-.33.87-.48,1.3-.3.93-.55,1.89-.53,2.87.11-.11.21-.21.32-.33-.02.49.01.99.03,1.49.81-.83,1.54-2.16,2.44-2.88c1.05-.84,1.95-1.66,2.7-2.03v0c.1-.03.2-.06.29-.09c0,0-.01-.02-.02-.03.01,0,.02,0,.03-.01c1.07,1.46,1.73,3.17,1.85,5.04v.08c.04.78.55,1.47,1.3,1.79c1.18.5,2.28,1.17,3.25,1.98-.14-.07-.28-.13-.43-.18-1.56-.66-3.3-1.03-5.12-1.03-4.44,0-8.32,1.48-10.5,4.69-2.19-3.22-6.07-4.69-10.5-4.69-.93,0-1.82.1-2.68.28.17-.11.35-.23.53-.33.66-.38,1.09-1.07,1.08-1.79c0-.26,0-.52.02-.79.17-2.46,1.3-4.65,3.03-6.34l2.71-1.95v0c.71-.38,1.48-.69,2.27-.92-.09.05-.18.11-.28.17-.31.17-1.05.54-1.7,1.34-.79.97-.74,1.49-1.24,2.91-.03.07-.05.13-.03.2.03.11.13.17.28.19-.07.22-.15.48-.25.77-.02.06-.05.13-.03.19.17.59,2.17-.74,2.52-.86Z" fill="#f6c694"/><path d="M104.89,6.89c0,0,.01.02.02.03-.09.03-.19.05-.29.09.09-.05.17-.09.26-.11v0Z" fill="#f6c694"/><path d="M104.82,52.28c.05.05.1.09.15.14l-.17-.11c0,0,0-.02.01-.03Z" fill="#fff"/><path d="M104.59,0.51c-.07-.03-.14-.05-.21-.07.07.01.15.04.21.07Z" fill="#cca581"/><path d="M104.38,52.04c.2.06.33.15.44.24c0,.01-.01.02-.01.03l-.43-.28Z" fill="#fff"/><path d="M104.26,52l-.92.03c.25-.06.52-.09.79-.05.05,0,.09.01.13.02Z" fill="#fff"/><path d="M103.12,4.82l-2.05-1.3c-.05-.56.07-1.15.39-1.7.55-.95,1.51-1.48,2.44-1.44.09.03.18.05.27.1c1.15.58,1.48,1.99.72,3.13-.42.63-1.07,1.05-1.77,1.2Z" fill="#f6c694"/><path d="M104.61,6.47c-.28-.35-.58-.68-.91-.98l.16.11c0,0,.02,0,.03,0c.26.26.5.55.72.87Z" fill="#cca581"/><path d="M103.71,5.49c.33.3.63.63.91.98.03.04.3.39.32.4-.01,0-.02,0-.03.01v0c0,0,0,0,0-.01-.4-.55-.86-1.06-1.37-1.52l.19.14Z" fill="#cca581"/><path d="M102.59,4.59c.32.23.63.49.92.77l-1.44-1.04c.18.09.36.17.52.28Z" fill="#f6c694"/><path d="M102.79,4.7c.4.26.77.55,1.11.9c0,0-.02,0-.03,0l-.16-.11c-.29-.28-.6-.55-.92-.79Z" fill="#cca581"/><path d="M103.51,5.35c-.29-.28-.6-.53-.92-.77.07.04.13.07.19.11.32.24.63.51.92.79l-.19-.14Z" fill="#cca581"/><path d="M101.14,3.65c.58.3,1.13.66,1.64,1.05-.07-.04-.13-.07-.19-.11-.42-.32-.86-.6-1.32-.85l-.13-.09Z" fill="#cca581"/><path d="M102.59,4.59c-.17-.1-.34-.19-.52-.28l-.8-.58c.46.26.91.54,1.32.85Z" fill="#f6c694"/><path d="M101.06,3.52l2.05,1.3c.7-.15,1.35-.57,1.77-1.2.76-1.15.43-2.56-.72-3.13-.09-.05-.18-.07-.27-.1.16,0,.32.03.48.07.07.01.15.04.21.07.11.04.21.09.32.15c1.15.66,1.48,2.27.72,3.58-.41.71-1.05,1.18-1.74,1.36-.34-.35-.7-.64-1.11-.9-.51-.4-1.06-.75-1.64-1.05l-.07-.05c0,0,0-.05,0-.07Z" fill="#cca581"/><path d="M103.85,72.16c-2.16,0-3.91-.41-3.91-1.18c0-.13.05-.28.15-.44v0c.57-.07,1.13-.16,1.66-.26c1.52-.28,2.9-.66,4.14-1.13v0c1.12.49,1.85,1.32,1.85,1.83c0,.33-.32.59-.85.78-.71.27-1.82.4-3.06.4Z" fill="#f6c694"/><path d="M105.14,64.53c0-4.62-2.2-8.61-5.41-10.53l.26-.42c.3.19.68.33,1.17.34.63.03,1.77-.13,2.12-.58.26-.32.13-.81.08-1.16c0-.05-.01-.1-.02-.15l.92-.03c0,0,0,0,0,0c.03.01.07.02.1.03v0l.43.28c-.24.48-.45,1-.62,1.53-.14.45-.32.97-.28,1.44.03.36.17.7.42.95.09.09.18.17.29.21.06.03.43.07.45-.01.05.13.13.26.22.36.09.11.19.21.32.28.11.07.24.09.37.09.53.02.91-.32,1.28-.65v0c.13.15.3.25.51.22.45-.06.99-.24,1.17-.68.17-.43.19-.92.19-1.38c0,0,2.42-2.05,3.03-2.78.6-.73,1.4-1.97,1.4-3.27-.01-1.29-.44-3.94-3.04-3.56l-1.48-.02c.02-.92.08-1.84.13-2.76.08-1.42.18-2.84.28-4.26.05-.81.17-1.63.12-2.44v-.03c4.49,4.67,6.48,11.36,6.69,17.73.13,3.95-.93,8.03-3.49,11.12-1.81,2.18-4.23,3.73-6.87,4.73v0c-1.24.46-2.62.85-4.14,1.13c2.06-.68,3.38-2.24,3.38-5.75Z" fill="#fff"/><path d="M100.12,34.5c.15.03.3.07.45.11h-.01c-.15-.03-.3-.07-.44-.11Z" fill="#fff"/><path d="M101.92,9.03c-.91.72-1.64,2.05-2.44,2.88-.01-.5-.05-1-.03-1.49.69-.72,1.39-1.44,2.17-2.07c1.06-.85,2.19-1.11,2.99-1.35-.75.37-1.64,1.19-2.7,2.03Z" fill="#cca581"/><path d="M100.18,6.56c-.09.03,0,1.08-.03,1.16-.19.43-.34.87-.48,1.31-.15.46-.21.92-.21,1.39-.11.11-.21.22-.32.33-.02-.98.23-1.95.53-2.87.15-.44.3-.88.48-1.3.01,0,.03,0,.05-.01Z" fill="#f6c694"/><path d="M98.74,33.27c2.56.64,5.32.51,7.79-.38c2.56-.92,4.63-2.62,5.92-4.75.93-1.54,1.46-3.32,1.46-5.2c0-.36-.01-.71-.05-1.07-.17-1.64-.74-3.17-1.59-4.54-.4-.63-.87-1.21-1.38-1.75.14.05.29.11.43.18c0,0,0,0,.01,0c.03.03.05.05.07.07.1.08.21.17.3.26.12.11.23.21.35.33.68.66,1.28,1.4,1.77,2.19.85,1.36,1.42,2.89,1.59,4.54.04.36.05.72.05,1.07c0,1.88-.52,3.65-1.46,5.2-1.29,2.13-3.36,3.83-5.92,4.75-.21.07-.42.15-.64.21v0c-1.2.37-2.49.56-3.86.56-1.03,0-2.03-.11-2.98-.33c0,0-.01,0-.02,0h-.01c-.15-.03-.3-.07-.45-.11-.45-.11-.89-.26-1.31-.42-.08-.03-.17-.06-.26-.09l.18-.72Z" fill="#d9d9d9"/><path d="M95.97,2.22c1.87.1,3.63.6,5.17,1.43l.13.09c-1.56-.87-3.38-1.4-5.3-1.52Z" fill="#f6c694"/><path d="M96.69,33.62l-3.35.46c1.07-.4,2.22-.55,3.35-.46Z" fill="#d9d9d9"/><path d="M94.78,2.2c-.13,0-.27.01-.41.03.13-.01.28-.02.41-.03Z" fill="#f6c694"/><path d="M95.23,4.98c-.42.17-.85.36-1.23.6-.89.56-1.84,1.03-2.83,1.38-.28.1-1.78.67-2.42.56.27-.89.37-1.38.99-2.15.36-.45.76-.76,1.09-.97.26-.17.48-.29.61-.36.12-.06.22-.13.34-.21c1.1-.32,2.27-.48,3.47-.48c2.6,0,4.95.09,6.83.96l1.44,1.04c.51.46.97.97,1.37,1.52q0,0,0,.01c-.09.03-.17.07-.26.11v0c-.81.23-1.93.5-2.99,1.35-.79.62-1.48,1.35-2.17,2.07c0-.47.06-.93.21-1.39.15-.44.3-.88.48-1.31.03-.08-.05-1.13.03-1.16-.01,0-.03,0-.05.01c0,0,0,0,0-.01.03-.07.18-.54.27-.57-1.89.56-3.82,1.08-5.34,2.4-.32.28-.62.57-.91.88-.19.21-.5.75-.57.15-.03-.21-.05-.43-.06-.64.07-.68.3-1.31.86-1.84.4-.38.86-.72,1.34-.99-.14.08-.34.11-.5.18-.42.17-.7-.27-1.09-.03-.02.01-.04.03-.07.04.09-.12.19-.24.32-.36.4-.38.85-.72,1.34-1-.15.09-.34.12-.5.19Z" fill="#f6c694"/><path d="M93.53,8.79c-.07-.95-.03-1.87.54-2.64.03-.01.05-.03.07-.04.38-.24.67.2,1.09.03.15-.07.36-.1.5-.18-.48.27-.93.61-1.34.99-.56.53-.79,1.16-.86,1.84Z" fill="#f6c694"/><path d="M93.6,10.58c-.07-.61-.13-1.21-.07-1.79.01.21.03.42.06.64.07.59.38.05.57-.15.29-.31.59-.6.91-.88c1.52-1.32,3.46-1.84,5.34-2.4-.09.03-.23.5-.27.57c0,0,0,0,0,.01-1.87.58-3.55,1.66-5.06,2.97-.32.28-.62.57-.91.88-.19.21-.5.75-.57.15Z" fill="#cca581"/><path d="M94.34,2.23c-.9.07-1.78.23-2.62.48.01-.01.03-.03.05-.03.83-.23,1.69-.39,2.58-.45Z" fill="#f6c694"/><path d="M90.4,70.54c-.44-.06-.87-.12-1.28-.19c0,0-.01,0-.03,0q0,0-.01,0c-.3-.05-.58-.1-.86-.16.05-.03.11-.07.16-.11.25-.18.45-.45.6-.77.58-1.34.15-2.85-.11-4.2-.32-1.66-.54-3.32-.83-4.98-.14-.84-.29-1.68-.44-2.52c1.77-2.91,4.61-4.8,7.83-4.8c1.54,0,3,.44,4.3,1.21c3.21,1.91,5.41,5.91,5.41,10.53c0,3.5-1.32,5.06-3.38,5.75-.53.1-1.09.19-1.66.26v0c-1.5.19-3.1.29-4.85.29s-3.36-.1-4.85-.29Z" fill="#f6c694"/><path d="M94,5.59c.38-.25.81-.44,1.23-.6.15-.07.35-.1.5-.19-.48.28-.94.62-1.34,1-.12.11-.23.23-.32.36-.88.55-2.11,1.13-3.08,1.48-.34.12-2.34,1.45-2.52.86-.02-.07,0-.13.03-.19.1-.29.18-.54.25-.77.64.11,2.13-.46,2.42-.56.99-.35,1.95-.81,2.83-1.38Z" fill="#cca581"/><path d="M91.44,4.04c-.13.07-.35.19-.61.36-.33.21-.72.52-1.09.97-.62.77-.72,1.26-.99,2.15-.15-.03-.25-.09-.28-.19-.02-.07,0-.13.03-.2.5-1.42.45-1.94,1.24-2.91.64-.8,1.39-1.17,1.7-1.34.1-.06.19-.12.28-.17.85-.26,1.73-.42,2.62-.48c0,0,.02,0,.03,0c.14-.01.28-.02.41-.03.15,0,.3,0,.45,0c.25,0,.5,0,.74.02c1.92.11,3.73.65,5.3,1.52l.8.58c-1.87-.87-4.23-.96-6.83-.96-1.2,0-2.37.17-3.47.48-.11.07-.21.15-.34.21Z" fill="#f6c694"/><path d="M88.73,1.31c.13,1.51-.73,2.03-1.62,3.03-.35.4-.7.73-1.03,1.01.05.03.1.05.15.08-.52-.23-.97-.64-1.3-1.19-.76-1.31-.43-2.91.72-3.58.99-.57,2.26-.28,3.07.64Z" fill="#f6c694"/><path d="M89.54,54.38c-.03.11-.07.23-.14.34-.04.05-.38.3-.4.18.02.15,0,.3-.02.45-.02.14-.05.28-.12.4-.07.11-.17.2-.28.27-.38.23-.8.19-1.21.11-.07-.01-.14-.03-.21-.04h-.03c-.02.19-.12.37-.32.45-.42.17-.98.29-1.35,0s-.62-.7-.85-1.1c0,0-.22-.04-.57-.11.07.79.13,1.58.19,2.37.15,1.88.32,3.76.46,5.64.13,1.56-.05,3.15.36,4.68.15.54.39,1.09.76,1.54-.42-.13-.81-.26-1.2-.41-13.08-4.91-11.91-19.49-6.85-28.87.13,1.38,1.54,1.99,1.54,1.99s-.28.11-.44,1.1c-.17,1,.89,1.2.89,1.2l1.93-.29c.29.38.62.72.9.97.38.34.68.54.68.54.04.47.07.93.11,1.4.05.66.11,1.34.17,2c1.01.49,2,.97,2.94,1.55.7.43,1.38.91,2.01,1.48.35.32.76.68.96,1.11.15.32.2.69.11,1.03Z" fill="#fff"/><path d="M95.44,52.79c-3.22,0-6.06,1.89-7.83,4.8-.08-.49-.17-.97-.25-1.46.42.07.83.12,1.21-.11.11-.07.21-.15.28-.27s.1-.26.12-.4c.03-.15.04-.3.02-.45.01.12.36-.13.4-.18.07-.1.11-.22.14-.34.09-.34.04-.71-.11-1.03-.2-.44-.61-.79-.96-1.11-.63-.57-1.31-1.05-2.01-1.48-.34-2.08-.67-4.17-1.01-6.25v-.02c1.21-1.22,1.83-4.22,1.42-7.61-.09-.73-.21-1.43-.38-2.09.66.1,1.34.15,2.05.15c1.68,0,3.3-.3,4.77-.86.01,0,.03,0,.04-.01l3.35-.46c0,0,.05,0,.07,0c.16.01.32.03.48.05.17.03.36.06.53.1.01,0,.03,0,.03,0c.17.04.33.08.5.13l.26.08c.09.03.17.06.26.09.42.16.86.3,1.31.42.14.04.29.07.44.11-.66-.04,0,1.07-.05,2.69s-.38,2.32-.6,3.97c-.22,1.66-.6,3.21-.88,5.03-.13.88-.17,1.77-.16,2.64c0,.45.02.89.05,1.34v0c.03.48.07.95.11,1.42.07.67.31,1.44.97,1.88l-.26.42c-1.3-.78-2.75-1.21-4.3-1.21Z" fill="#fff"/><path d="M87.41,68.89c-.35.07-.72-.43-.85-1.09-.12-.67.07-1.26.42-1.32.35-.07.72.43.85,1.09.12.67-.07,1.26-.42,1.32Z" fill="#f6c694"/><path d="M88.66,4.08c.26-.15.51-.3.78-.44L86.73,5.59c.38-.37.8-.71,1.24-1.03.23-.17.46-.32.7-.47Z" fill="#cca581"/><path d="M89.5,3.59l-.05.03v0c-.27.15-.52.3-.78.45-.24.15-.47.3-.7.47-.44.32-.85.66-1.24,1.03l-.03.03c-.07-.01-.13-.03-.19-.06-.04-.01-.08-.03-.12-.05-.05-.02-.1-.05-.15-.07-.05-.03-.1-.05-.15-.08.32-.28.68-.62,1.03-1.01.89-1.01,1.75-1.52,1.62-3.03.14.15.28.32.38.52.33.57.45,1.19.38,1.77Z" fill="#cca581"/><path d="M86.38,5.5c0,0,.08.03.12.05-.04,0-.08-.03-.12-.05Z" fill="#f6c694"/><path d="M91.85,32.79c1.77-.38,3.65-.64,5.4.02.48.19.98.34,1.49.46l-.18.72-.26-.08c-.17-.05-.33-.09-.5-.13c0,0-.02,0-.03,0-.17-.04-.36-.07-.53-.1-.16-.02-.32-.04-.48-.05-.02,0-.05,0-.07,0-1.13-.09-2.28.06-3.35.46-.01,0-.03,0-.04.01-1.48.56-3.09.86-4.77.86-.7,0-1.39-.05-2.05-.15-.01-.05-.03-.11-.04-.15-.07-.26-.14-.52-.21-.77-.02-.09-.03-.17-.02-.26c1.94-.15,3.73-.42,5.65-.83Z" fill="#d9d9d9"/><path d="M86.23,33.87c.07.25.15.5.21.77-.08-.25-.18-.52-.21-.77Z" fill="#d9d9d9"/><path d="M87.41,68.89c.35-.06.54-.65.42-1.32-.12-.66-.5-1.16-.85-1.09-.35.06-.54.65-.42,1.32.12.66.5,1.16.85,1.09Zm1.57.4c-.15.32-.35.59-.6.77-.05.05-.11.08-.16.11-.37.22-.81.29-1.3.15-.46-.13-.84-.42-1.13-.77-.37-.44-.61-1-.76-1.54-.4-1.52-.23-3.12-.36-4.68-.15-1.88-.31-3.76-.46-5.64-.07-.79-.13-1.58-.19-2.37.35.07.57.11.57.11.23.4.48.81.85,1.1s.93.17,1.35,0c.2-.08.3-.26.32-.46h.03c.07.02.15.03.21.05.08.48.17.97.25,1.46.15.84.3,1.68.44,2.52.28,1.66.51,3.32.83,4.98.26,1.36.7,2.87.11,4.2Z" fill="#fff"/><path d="M82.56,45.26c-.28-.26-.61-.59-.9-.97l2.5-.37c.83-1.48,1.19-4.01.87-6.81-.15-1.24-.43-2.4-.79-3.42l2.25,1.11c.17.66.3,1.36.38,2.09.4,3.39-.21,6.38-1.44,7.61v.02c.36,2.08.69,4.17,1.03,6.25-.94-.58-1.93-1.06-2.94-1.55-.05-.66-.11-1.34-.17-2-.04-.47-.07-.93-.11-1.4c0,0-.3-.2-.68-.54Z" fill="#fff"/><path d="M89.13,70.35c.41.07.84.13,1.28.19.1.17.15.32.15.44c0,.77-1.75,1.18-3.91,1.18-1.24,0-2.34-.13-3.05-.4-.53-.19-.85-.45-.85-.78c0-.52.72-1.35,1.85-1.83.39.15.79.28,1.2.41.3.36.67.64,1.13.77.48.13.93.07,1.3-.15.28.06.56.11.86.16q0,0,.01,0c0,0,.02,0,.03,0Z" fill="#f6c694"/><path d="M82.84,36.28c.25.04.44-.01.44-.01s-.19-.02-.44.01Zm-.61-3.36c0,0-.21.07-.4.16-.02,0-.05,0-.07.01c0,0,.01,0,.02.01.01,0,.03-.02.05-.03.2-.04.36-.13.4-.16Zm-2.95,9.35c0,0-1.4-.62-1.54-1.99c0-.04-.01-.09-.01-.13-.06-1.46.89-2.21.89-2.21s-1.4.3-1.33-1.83c.08-2.12.91-2.48.91-2.48s-.66-1.43.17-1.97c.23-.15.66-.27,1.16-.38.38-.08.81-.15,1.23-.21c1-.14,1.92-.21,1.97-.21v0c.58.69,1.1,1.66,1.51,2.83.36,1.01.64,2.17.79,3.42.33,2.8-.04,5.34-.87,6.81l-2.5.37-1.93.29c0,0-1.06-.2-.89-1.2.16-.99.44-1.1.44-1.1Z" fill="#fff"/></g><g><path d="M102.77,48.31l-.06-.5c-.14-1.26-.11-5.13-.06-7.81.03-1.55.06-2.69.06-2.69" fill="none" stroke="#1d1d1b" stroke-width="0.5" stroke-linecap="round" stroke-linejoin="round"/><path d="M102.93,49.51c-.03-.19-.06-.38-.08-.58-.03-.21-.06-.41-.09-.62" fill="none" stroke="#1d1d1b" stroke-width="0.5" stroke-linecap="round" stroke-linejoin="round"/><path d="M103.34,52.03c-.05-.39-.14-.78-.2-1.17-.03-.19-.06-.39-.09-.58-.04-.26-.07-.51-.11-.76" fill="none" stroke="#1d1d1b" stroke-width="0.5" stroke-linecap="round" stroke-linejoin="round"/><path d="M104.38,52.04v0l-.05-.03h-.05c0,0,0,0,0,0" fill="none" stroke="#1d1d1b" stroke-width="0.5" stroke-linecap="round" stroke-linejoin="round"/><path d="M105.52,40.65l.02.23.4,4.15v.02l.29,3l.11,1.12.29,3.07-.43.45-1.09-.19-.1-.06c0,0-.01-.02-.02-.02" fill="none" stroke="#1d1d1b" stroke-width="0.5" stroke-linecap="round" stroke-linejoin="round"/><path d="M102.85,40.28c0,0,.39,4.54.77,7.5.05.48.11.91.17,1.28.09.65.19,1.1.27,1.21.4.6.72.7,1.15.83.42.13.52.11.8-.21.15-.17.21-.83.19-1.76c0-.34-.03-.71-.05-1.11-.03-.49-.08-1.03-.13-1.58-.08-.84-.17-1.83-.25-2.77c0-.03,0-.05,0-.07-.1-1.19-.18-2.26-.21-2.72" fill="none" stroke="#1d1d1b" stroke-width="0.5" stroke-linecap="round" stroke-linejoin="round"/><line x1="102.77" y1="48.32" x2="102.77" y2="48.31" fill="none" stroke="#1d1d1b" stroke-width="0.5" stroke-linecap="round" stroke-linejoin="round"/><line x1="102.93" y1="49.52" x2="102.93" y2="49.51" fill="none" stroke="#1d1d1b" stroke-width="0.5" stroke-linecap="round" stroke-linejoin="round"/></g></g><g><path d="M110.08,49.58c-.02.86-1.36.86-1.34,0c.03-1.66.76-3.2,1.08-4.8.17-.83.29-1.66.44-2.5.07-1.02.13-2.04.2-3.05.05-.81.18-1.63.13-2.44-.05-.85-.6-1.01-1.59-1.18-.99-.16-3.42.11-4.34.36-.87.24-2.43-.14-3.09-.18s0,1.07-.06,2.69-.38,2.31-.6,3.97-.6,3.2-.88,5.03c-.27,1.82-.16,3.65,0,5.39.09.97.57,2.16,2.14,2.22.63.02,1.77-.14,2.12-.58.25-.31.12-.81.08-1.16-.06-.44-.15-.88-.22-1.33-.16-1.02-.32-2.03-.44-3.05-.22-1.99,0-10.5,0-10.5l2.86,1.02c0,0-.22.2-.22,1.09s.66,6.65,1.04,8.72.11,4.8.11,4.8c.45-.05,1.15.46,1.59.33.29-.08.51-.26.7-.44.76-.74,1.04-1.7,1.02-2.63-.02-.99-.38-1.94-.61-2.91-.07.37-.12.74-.13,1.11Z" fill="#d9d9d9"/><path d="M99.87,50.13c0,0,.93.78,2.08.56s1.91-.56,1.91-.56" fill="#d9d9d9"/><path d="M99.92,51.46c0,0,.59.67,2.05.52s2.09-.52,2.09-.52" fill="#d9d9d9"/><path d="M107.56,51.19c.52.01,1,.27,1.59,0s1.55-.76,1.55-.76" fill="#d9d9d9"/><polyline points="103.9,53.77 104.06,53.8 105.87,54.2 107.01,54.26 108.23,54.01 109.17,52.37 108.82,51.07 104.06,50.55 103.21,51.19" fill="#d9d9d9"/></g><path d="M100.22,34.53l.28,2.78c0,0-.7,4.71-.86,5.55s-.95,6.38-.95,6.38l.21,2.74c0,0,.72,2.14,1.03,1.94s1.98.01,1.98.01l1.13-.4.32-1.35l1.45.09l1.22.51.68-1.16.03,1.7c0,0,.64.38,1.34-.06s1.07-.54,1.34-1.33.49-1.8.37-2.25s0-1.56-.37-2.37-.45-.95-.4-2.27.18-3.63.26-4.77.25-2.41.26-3.54.41-.32.01-1.13-1-1.61-1-1.61l-2.84.82-3.81.13-1.7-.42Z" fill="#19a7b0"/><path d="M98.9,48.7l.84.73l2.16.1.87-.52.2-.93.93-.38l2.13.28.35.19.34.67.53.09l1.12-.24l1.02-.69.42.93-.37.43-.76.58-1,.15-.94-.09-.34-.91-.93-.11h-1.47c0,0-.94.53-.94.53l.08.74-.88.29c0,0-1.13.22-1.32.25s-1.03-.06-1.03-.06l-.94-.21c0,0-.08-.77-.16-.86s-.11-.44-.11-.44l.21-.54Z" fill="#fff"/><polygon points="81.65,44.28 83.28,45.64 83.48,48.94 84.02,49.54 86.35,50.69 85.95,47.49 85.44,44.5 86.65,41.94 86.98,38.68 86.65,34.95 85.64,31.76 84.32,30.35 83.12,29.31 81.25,30.11 80.86,30.85 82.73,30.87 83.63,32.27 84.76,35.56 85.12,38.32 84.96,41.88 84.52,43.91 83.32,44.15 82.17,44.28 81.65,44.28" fill="#19a7b0"/><path d="M89.58,67.96c-.3-.19-.95-4.25-.95-4.25l-1.27-7.58-.83.86-1.14-.5-.98-1.07-.39-.09.68,6.47.09,4.66.45,2.14.71,1.33l1.19.57.94-.33.91-.89c0,0,.9-1.14.59-1.33Zm-1.89.86l-.49.08-.75-.94v-.97l.2-.53.34-.07.62.53.26,1.07-.18.82Z" fill="#19a7b0"/><g opacity="0.32"><path d="M89.4,5.91c.55-1.18,1.29-2.44,2.67-2.8.43-.11.6.54.17.65-1.23.11-2.11,1.21-2.76,2.2-.03.05-.12,0-.09-.05v0Z" fill="#fff"/></g><path d="M85.69,2.21c-.01-.93,1.25-1.26,1.98-.83.4.21.08.81-.32.61-.39-.43-1.42-.5-1.59.23c0,.04-.07.04-.07,0v0Z" fill="#f6c694"/><path d="M102.68,1.6c.22-.68,1.14-.95,1.77-.54.39.23.05.83-.34.6-.36-.46-.99-.56-1.42-.06v0Z" fill="#f6c694"/><g opacity="0.32"><path d="M94.22,7.61c.12-1.15,1.15-2.14,2.37-2.21.11,0,.22.08.22.19s-.08.21-.19.21c-1.02-.04-2.07.74-2.27,1.82-.01.08-.13.06-.12-.02v0Z" fill="#fff"/></g><g opacity="0.32"><path d="M85.11,13.71c1.97-.75,4.32-.31,5.99.95.05.04.02.12-.05.11-1.98-.46-3.85-.98-5.91-.92-.08,0-.11-.12-.03-.15v0Z" fill="#fff"/></g><g style="mix-blend-mode:multiply"><path d="M91.62,67.65c-.66,0-6.27-.35-6.92-.39l1.24,2.67c.69.15,3.7.5,4.45.6c1.49.19,3.11.29,4.85.29s3.36-.1,4.85-.29c2.19-.28,4.11-.76,5.8-1.39c2.64-.99,5.07-2.54,6.87-4.72c2.56-3.09,3.62-7.16,3.49-11.12-.01-.37-.03-.75-.06-1.12-.89,8.64-11.55,15.47-24.58,15.47Z" fill="#d9d9d9"/><path d="M78.2,64.96c1.58,1.72,3.67,3.16,6.39,4.18.39.15.79.28,1.2.41l-.69-2.5c-2.48-.46-4.8-1.17-6.9-2.09Z" fill="#d9d9d9"/></g><path d="M90.4,70.53l-2.32-.55c0,0-.06.08-.1.11-.06.06-.14.1-.23.12-.08.02-.17.03-.25.04-.03,0-.06,0-.09,0-.08,0-.17-.02-.25-.03-.03,0-.06,0-.09-.02-.1-.03-.19-.07-.29-.11-.05-.02-.09-.05-.13-.08-.08-.06-.17-.12-.24-.2-.07-.07-.13-.16-.19-.24c0-.01-.01-.02-.02-.04l-1.6-.38c-1.13.49-1.85,1.32-1.85,1.84c0,.77,1.75,1.18,3.91,1.18s3.91-.41,3.91-1.18c0-.13-.06-.29-.16-.45Z" fill="#cca581"/><path d="M100.1,70.53c-.11.16-.16.32-.16.45c0,.77,1.75,1.18,3.91,1.18s3.91-.41,3.91-1.18c0-.52-.72-1.35-1.85-1.84" fill="#cca581"/><g style="mix-blend-mode:multiply"><path d="M83.71,39.53c.05.32.24.6.33.92.24.87-.37,1.78-1.14,2.25s-1.68.65-2.52.97c-.12.05-.26.12-.28.24-.03.15.12.27.26.33.6.27,1.3.05,1.92-.17.48-.17,1.21.13,1.65-.12s.6-1.05.86-1.48c.46-.75.44-1.68.4-2.56-.05-1.11-.09-2.23-.3-3.33-.32-1.7-1.01-3.3-1.69-4.89-.14-.32-.29-.66-.55-.89.45,2.86,1.06,5.85,1.06,8.72Z" fill="#d9d9d9"/></g><g style="mix-blend-mode:multiply"><path d="M112.46,46.76c-.35-.11-.76-.15-1.25-.08l-.33.99-.52.61c-.03.18-.06.37-.1.55.19.17.3.43.21.67-.02.06-.05.1-.07.16v0c0,0-.02.04-.04.06-.07.14-.14.27-.22.4-.02.04-.04.08-.06.12c0,.01-.01.03-.02.04-.02.05-.04.11-.06.16c0,.01,0,.03-.01.04.12.46-.13.95-.39,1.3-.2.26-.4.49-.67.64-.42.55-.89,1.04-1.64,1.1-.3.03-.56-.23-.65-.49-.04-.13-.06-.26-.07-.39l-1.06,1.22-.49.75c0,0-.01.2-.03.48-.04.11-.08.22-.12.33-.14.45-.32.97-.28,1.44.03.36.17.7.42.95.09.09.18.17.29.21.06.03.43.07.45-.01c0,0,0,0,0-.01.05.14.14.26.23.37s.19.22.31.29c.11.06.24.09.37.09.37.01.67-.16.94-.37v0c0,0,0,0,0,0c.11-.09.22-.18.33-.28l-.2-.13.05-.16c0,0,0,0,0,0c.12.31.34.54.66.5.45-.06.99-.24,1.17-.67s.19-.92.19-1.38c0,0,2.42-2.05,3.03-2.78.6-.73,1.41-1.97,1.4-3.26c0-1.05-.29-3-1.79-3.49Z" fill="#d9d9d9"/></g><path d="M111.76,45.16c-.35-.11-.76-.15-1.25-.08l-.33.99-1.1,1.28c.09.08.16.18.2.3.34.89.58,1.89.51,2.85-.05.76-.27,1.62-.89,2.12-.34.27-.77.53-1.22.54-.4,0-.77-.2-.94-.57-.08-.16-.12-.34-.14-.52-.19.18-.4.33-.65.39-.35.08-.7-.02-.95-.28-.02-.02-.03-.04-.04-.06l-.14.16-.49.75c0,0-.01.2-.03.48-.04.11-.08.22-.12.33-.14.45-.32.97-.28,1.44.03.36.17.7.42.95.09.09.18.17.29.21.06.03.43.07.45-.01c0,0,0,0,0-.01.05.14.14.26.23.37s.19.22.31.29c.11.06.24.09.37.09.37.01.67-.16.94-.37v0c0,0,0,0,0,0c.11-.09.22-.18.33-.28l-.2-.13.05-.16c0,0,0,0,0,0c.12.31.34.54.66.5.45-.06.99-.24,1.17-.67s.19-.92.19-1.38c0,0,2.42-2.05,3.03-2.78.6-.73,1.41-1.97,1.4-3.26c0-1.05-.29-3-1.79-3.49Z" fill="#fff"/><g style="mix-blend-mode:multiply"><path d="M102.65,39.58l-.05,4.02.16,4.71.58,3.42l1.14.37l1.03.61.69-.22.39-.43-.04-2.06-.81-6.52-.25-2.22-.21-.99c0,0-.24,3.47-.07,4.88s.57,4.88.46,5.57-.28,1.07-.63.59-.97-.08-1.13-.59-.47-1.23-.56-4.08-.69-7.06-.69-7.06Z" fill="#d9d9d9"/></g><g style="mix-blend-mode:multiply"><path d="M107.01,52.4c0,0,1.13,0,1.47-.67s.67-1.09.65-1.61-.41-2.65-.41-2.65l.41-3.11.56,5.15-.09,2.01-.81,1.29c0,0-.96.66-1.03.5s-1.01,0-1.01,0l.06-.61" fill="#d9d9d9"/></g><g style="mix-blend-mode:multiply"><path d="M99.35,52.28c0,0,.88.79,1.5.75s.9-.09,1.14-.38.24-.1.26-.92.09-2.2.09-2.2l.27-1.53.6,3.24.15,1.96-1.11.7h-1.4c0,0-1.15-.58-1.15-.58l-.58-1.07" fill="#d9d9d9"/></g><g opacity="0.32"><path d="M101.24,39.11c0,0-.91,3.73-1.16,5.17s-.37,2.56-.44,3.42.23,3.1.28,3.76.52.33.52.33-.5-2.13-.36-4.32s1.16-8.37,1.16-8.37Z" fill="#fff"/></g><g style="mix-blend-mode:multiply"><path d="M89.35,67.77c-.04-.35-.73-4.07-.73-4.07l-1.27-7.58-.82.84l1.05,6.26c0,0,.99,3.9.95,4.25-.13,1.21.03,1.25-.32,1.66s-1.19.55-1.19.55l-1.24-.05l1.34.85.94-.33.91-.89c-.03.13.49-.59.37-1.52Z" fill="#d9d9d9"/></g><g style="mix-blend-mode:multiply"><path d="M86.38,50.28l-.94-.15c0,0-.3-2.41-.41-3.48s-.12-1.64-.12-1.64l.3-.26l1.17,5.53Z" fill="#d9d9d9"/></g><g style="mix-blend-mode:multiply"><path d="M85.21,44.36c0,0,1.12-2.6,1.14-4.78s.03-4.98.03-4.98l.61,5.51-1.19,3.8-.66.66" fill="#d9d9d9"/></g><g style="mix-blend-mode:multiply"><path d="M87.23,35.99c.14.08.31.09.48.1c1.33.09,2.68.13,4-.04c1.47-.19,2.93-.64,4.42-.5c2.21.2,4.2,1.19,6.46,1.21c1.12.01,2.23-.12,3.32-.37.87-.21,2.62-.55,3.18-1.26-.2-.23-.44-.44-.67-.65l-5.09.43-4.22-.82-3.22-.48-3.16.4-1.75.95h-2.83c0,0-1.56-.14-1.56-.14.15.31.32,1.02.63,1.19Z" fill="#d9d9d9"/></g><g opacity="0.32"><path d="M106.15,37.72c-.06.56.08,1.14.14,1.69.17.6.35,1.05.35,1.69.1,1.15.15,2.3.1,3.47-.29-1.13-.47-2.27-.62-3.42-.08-.97-.44-1.57-.29-2.57c0-.29.12-.6.24-.87.02-.04.08-.03.07.02v0Z" fill="#fff"/></g><path d="M95.1,25.54c0,0,.17.65-.8,1.39s-.58,1.32-1.93,1.3c-.14,0-.36-.02-.49.04-.25.13.37.25.46.25.53,0,1.05-.1,1.56-.24.47-.13.91-.36,1.41-.32.74.06,1.45.46,2.18.6.52.09,1.09.08,1.57-.17.07-.04.31-.15.33-.24.03-.14-.21-.13-.32-.14-.32-.03-.65,0-.97-.06-.49-.07-1.17-.18-1.5-.6-.57-.72-1.44-1.27-1.33-1.63s0-.55,0-.55" fill="#d9d9d9"/><path d="M81.62,33.27c0,0-.07.07-.08.07c0,0-.03.03.02-.02l.08-.09c0,0,0,0,0,0-.1.1-.24.23-.34.32.26-.27.63-.64.91-.91l-.12.12c0,0,.03-.02-.03.03l-.15.16-.02.02c0,0-.01.01,0,0l.09-.08c0,0,.02-.01.02-.02-.03.05-.35.35-.4.41v0Z" fill="#1d1d1b"/><path d="M79.52,31.61c-5.46-5.09-3.5-14,3.04-17.5.51-.35.8-.89.78-1.5v-.44c.37-9.13,12.18-12.88,19.1-8.11c2.4,1.55,4.26,4.13,4.7,7.02.09.82.07,1.75.94,2.18c2.78,1.18,5.23,3.22,6.63,5.93c4.94,10.16-5.3,18.89-15.24,15.61-1.99-.85-4.2-1.15-6.27-.32-2.18.73-4.52.9-6.76.52l.07-.46c2.18.29,4.42.04,6.45-.73c1.59-.67,3.47-.84,5.17-.42c2.56.9,5.33,1.31,8,.71c5.22-1.03,9.63-5.97,8.73-11.45-.59-3.93-3.61-7.1-7.22-8.59-1.09-.54-1.37-1.73-1.39-2.86-.33-2.68-1.93-5.08-4.15-6.64-3.1-2.22-7.39-2.8-10.99-1.48-3.83,1.64-7.19,5.14-7.09,9.51.04.81-.42,1.62-1.08,2.06-6.17,3.33-8.12,11.3-3.14,16.55c0,0,.04.05.04.05s0,0,0,.01l-.33.33v0Z" fill="#1d1d1b"/><path d="M108.11,34.16c6.33,4,8.61,13.03,8.62,20.11-.04,8.38-5.41,14.58-13.58,16.19-4.95,1.03-10.04.9-14.99.07c0,0,.15-.71.15-.71c2.4.52,4.87.7,7.34.65c10.29-.09,20-4.71,20.17-16.22-.01-4.87-1.12-9.81-3.44-14.1-1.11-2.2-2.9-4.04-4.26-6v0Z" fill="#1d1d1b"/><path d="M85.69,69.9c-9.79-2.78-13.65-12-11.41-21.47.69-2.91,1.83-5.67,3.14-8.33l.64.34c-1.46,2.51-2.36,5.33-2.85,8.18-1.8,9.26,1.11,17.62,10.7,20.59c0,0-.21.69-.21.69v0Z" fill="#1d1d1b"/><path d="M90.76,70.29c.88,1.46-1.19,2-2.22,2.09-1.78.14-3.64.34-5.32-.39-.25-.12-.52-.28-.7-.63-.35-.91.64-1.64,1.29-2.09.22-.15.47-.2.61-.54l.35.8c-.31-.14-.49.04-.69.16-.37.24-.74.56-.93.96-.36.6.58.76,1.02.88c1.8.33,3.88.5,5.6-.2.32-.17.5-.3.26-.57c0,0,.73-.47.73-.47v0Z" fill="#1d1d1b"/><path d="M84.71,70.99c-.37.15-.78.44-.84.83-.02.02-.03.04-.07.05-.2.09-.5-.09-.4-.32.35-.34.8-.61,1.3-.6.03,0,.03.04,0,.04v0Z" fill="#1d1d1b"/><path d="M84.16,70.37c-.33.12-1.02.39-1.04.72.05.14-.02.31-.16.36-.64.11-.33-.74,0-.88.37-.22.78-.29,1.19-.33.04,0,.07.02.07.06c0,.03-.02.06-.05.07v0Z" fill="#1d1d1b"/><path d="M100.47,70.77c-.53.56,1.18.87,1.58.94.67.2,6.05.2,5.3-1.05-.19-.39-.56-.71-.93-.96-.2-.12-.38-.3-.69-.16l.35-.8c.14.34.39.39.61.54c1.03.61,2.15,1.99.58,2.72-1.23.77-9.08,1.04-7.54-1.7c0,0,.73.47.73.47v0Z" fill="#1d1d1b"/><path d="M105.8,70.95c.5,0,.95.27,1.3.6.01.03.03.06.02.11-.03.2-.24.28-.42.21-.1-.02-.04-.08-.07-.13-.02-.05-.04-.09-.07-.14-.17-.29-.45-.49-.77-.62-.03,0-.02-.04,0-.04v0Z" fill="#1d1d1b"/><path d="M106.36,70.25c.56.08,1.29.12,1.52.76.07.18.04.41-.17.46-.21.06-.42-.17-.33-.37-.03-.33-.72-.6-1.04-.72-.07-.02-.05-.13.02-.13v0Z" fill="#1d1d1b"/><path d="M86.39,2.7c.68-.36,1.79-.43,2.18.43.32.56,0,2.06-.7,1.33-.27-.39-.11-.86-.24-1.14-.23-.28-.82-.37-1.21-.44-.09-.01-.12-.15-.03-.19v0Z" fill="#1d1d1b"/><path d="M89.3,3.57c-.11-3.47-5.03-4-4.45-.1.22.92.92,1.74,1.86,2.03l-.05.2c-2.24-.4-3.35-3.69-1.4-5.19c2.02-1.58,5.04.76,4.42,3.1c0,0-.38-.04-.38-.04v0Z" fill="#1d1d1b"/><path d="M103.82,5.42c1.7-.63,2.58-3.14,1.08-4.37-.69-.55-1.75-.5-2.52.05-.77.54-1.28,1.5-1.22,2.48l-.21.02c-.29-1.61,1-3.36,2.67-3.51c3.66-.2,3.57,5.23.28,5.7c0,0-.09-.37-.09-.37v0Z" fill="#1d1d1b"/><path d="M102.64,1.96c1.57-1.38,3.4.63,1.9,2.11-.31.33-.81-.15-.48-.47.84-.55.64-1.79-.44-1.83-.31-.02-.63.08-.9.28-.06.05-.13-.04-.08-.09v0Z" fill="#1d1d1b"/><g><path d="M105.86,53.11c-.08,0-.17,0-.26-.03-.49-.1-.73-.3-.92-.47-.17-.15-.28-.25-.61-.3-.2-.03-.42-.02-.66.04l-.15-.65c.32-.07.63-.09.91-.05.52.08.76.29.95.46.16.14.29.25.6.32.47.09.64-.42.66-.53l.65.16c-.09.39-.46,1.05-1.19,1.05Z" fill="#1d1d1b"/><path d="M102.7,37.3c.67,3.3.02,7.36.37,10.69.18,1.24.42,3.02.64,4.23.03.33.19.79-.13,1.29-.67.7-1.43.68-2.27.75-1.27.08-2.41-.9-2.57-2.16-.71-4.36.48-8.62,1.19-12.88.33-1.44.27-2.69,0-4.17c0-.11-.01-.22.04-.39.15-.5.72-.39,1.1-.33.69.1,1.39.23,2.07.2c1.42-.26,2.83-.52,4.28-.48.81.08,1.64.04,2.26.77.54,1.04.1,2.31.1,3.39-.18,2.84-.44,5.75-.35,8.49.48,2.07,1.46,4.64-.42,6.37-.27.28-.69.54-1.13.57-.59.04-.96-.03-1.45.05-.04-1.37-.13-2.75-.26-4.1-.36-2.48-.77-4.99-.95-7.49c0-1.22-.38-2.7.35-3.78-.18.59,0,1.22.09,1.83.37,2.11.74,5.34,1.08,7.46.35,1.87.42,3.82.35,5.72c0,0-.38-.34-.38-.34h.02c.42-.04.78.02,1.07-.01.91-.16,1.46-1.22,1.62-2.08.25-1.31-.4-2.62-.65-4.1-.11-2.97.17-5.78.35-8.64.01-.96.34-2.13.01-2.96-.18-.29-.84-.38-1.23-.44-1.36-.11-2.79.06-4.12.35-1.02.25-2.05-.03-3.05-.14-.07,0-.2-.02-.19-.01-.02,0,.03,0,.04-.02.03-.03.04-.05.04-.05.02.69.27,1.49.23,2.29c0,1.46-.45,2.85-.63,4.28-.62,3.49-1.42,7-.82,10.53.21,1.49,1.59,1.84,2.89,1.49.74-.19.92-.34.76-1.15-.32-2.04-.76-4.36-.78-6.43-.02-2.88-.25-5.76.44-8.59v0Z" fill="#1d1d1b"/><path d="M100.53,49.87c-1.06,0-1.85-.65-1.89-.68l.43-.52c0,0,.83.67,1.81.49c1.09-.2,1.82-.53,1.83-.54l.28.61c0,0-.81.37-1.99.59-.16.03-.32.04-.47.04Z" fill="#1d1d1b"/><path d="M100.54,51.15c-1.29,0-1.86-.62-1.89-.65l.5-.45c0,0,.52.54,1.77.41c1.35-.14,1.95-.47,1.96-.47l.33.58c0,0-.71.4-2.22.56-.16.02-.31.02-.45.02Z" fill="#1d1d1b"/><path d="M103.06,48.47l-.6-.3c.04-.08.43-.8,1.87-.8c1.34,0,2.18.45,2.22.47l-.32.59c0,0-.74-.39-1.9-.39-1.01,0-1.26.41-1.27.43Z" fill="#1d1d1b"/><path d="M103.15,49.77l-.44-.51c0,0,.81-.67,1.93-.66c1.06.02,1.97.3,2.01.32l-.2.64c0,0-.86-.27-1.81-.28-.88-.02-1.48.49-1.48.5Z" fill="#1d1d1b"/><path d="M107.51,49.29c-.21,0-.41-.04-.6-.07-.14-.03-.29-.05-.43-.06l.02-.67c.18,0,.36.04.53.07.32.06.6.11.91-.04.59-.27,1.32-.65,1.33-.65l.31.6c0,0-.75.38-1.35.66-.26.12-.49.16-.72.16Z" fill="#1d1d1b"/><path d="M107.56,50.46c-.21,0-.41-.04-.6-.07-.14-.03-.28-.05-.43-.06l.02-.67c.18,0,.35.04.53.07.32.06.6.11.91-.04.59-.27,1.54-.76,1.54-.76l.31.6c0,0-.96.49-1.57.77-.26.12-.49.16-.72.16Z" fill="#1d1d1b"/></g><path d="M91.51,2.97c-1.77.72-2.33,2.63-2.81,4.3.18.15.58.03.86-.02c1.6-.42,3.12-1.11,4.51-2.04.44-.28,1.12-.55,1.54-.71.39-.2.7.38.32.59-1.95,1.04-2.32,2.31-1.99,4.4c0,.01-.04-.08-.15-.08-.1,0-.1.02-.1.02c1.61-2.05,4.28-2.92,6.7-3.65.17-.06.34.14.26.31-.63,1.46-1.19,3.08-1.15,4.66c0,0-.58-.23-.58-.23c1.71-1.58,3.58-3.83,6.14-3.77.07,0,.13.08.12.15c0,.07-.07.12-.14.12-1.18-.04-2.22.71-3.11,1.42-.92.75-1.7,1.65-2.52,2.55-.12.14-.33.15-.47.02-.07-.07-.11-.16-.11-.25.04-1.74.68-3.34,1.42-4.86c0,0,.26.31.26.31-2.41.76-4.89,1.63-6.49,3.69-.05.03-.12.1-.29.09-.17-.02-.28-.16-.3-.21-.21-.71-.24-1.77-.12-2.52.19-1.25,1.25-2.12,2.28-2.73c0,0,.34.59.33.59-1.12.34-2,.95-3.04,1.46-.7.3-4.54,2.03-4.56.67.56-1.74,1.24-3.72,3.11-4.41.1-.04.17.11.07.16v0Z" fill="#1d1d1b"/><g><path d="M84.34,44.97c3.78-1.83,2.46-14.41-1.66-15.1-.69-.04-1.31.58-1.85,1.24-.03.04-.09.05-.14.02c0-.89.99-1.95,1.98-1.92c1.03,0,1.82.73,2.39,1.48c2.43,3.57,3.06,8.82,1.43,12.82-.36.81-1.12,1.79-2.14,1.61-.07-.02-.08-.11-.02-.15v0Z" fill="#1d1d1b"/><path d="M84.15,44.25c-.06,0-.11-.01-.16-.04-.16-.09-.22-.29-.13-.46.82-1.46,1.13-3.99.82-6.61-.3-2.53-1.13-4.79-2.21-6.07l.25-.22.27-.19v0c1.14,1.35,2.03,3.75,2.35,6.4.33,2.79,0,5.41-.9,7.01-.06.11-.18.17-.29.17Z" fill="#1d1d1b"/><path d="M87.42,70.73c-.19,0-.38-.03-.58-.08-.5-.14-.94-.44-1.3-.88-.36-.43-.64-1-.82-1.66-.28-1.04-.29-2.11-.31-3.15c0-.53-.02-1.07-.06-1.59-.1-1.25-.2-2.5-.31-3.75l-.35-4.26c-.02-.18.12-.35.31-.36.18,0,.35.12.36.31l.35,4.26c.1,1.25.21,2.5.31,3.75.04.54.05,1.1.06,1.64.02,1.04.03,2.02.28,2.98.16.56.39,1.05.69,1.41.28.33.6.56.97.66.38.11.72.06,1.03-.12.26-.15.48-.41.62-.73.47-1.07.21-2.29-.03-3.48-.04-.18-.07-.35-.11-.53-.2-1.03-.36-2.08-.52-3.09-.1-.63-.2-1.27-.31-1.9-.15-.92-.31-1.84-.47-2.75l-.21-1.22c-.03-.18.09-.36.27-.39s.36.09.39.27l.21,1.22c.16.92.32,1.83.47,2.75.11.63.21,1.27.31,1.91.16,1.01.32,2.05.52,3.07.03.17.07.34.1.52.25,1.23.54,2.62-.01,3.88-.21.46-.52.82-.9,1.04-.3.18-.63.27-.98.27Z" fill="#1d1d1b"/><path d="M86.45,51.09c-.16,0-.3-.12-.33-.28l-.13-.82c-.29-1.81-.58-3.62-.88-5.43-.03-.18.09-.36.28-.39s.36.09.39.28c.3,1.81.59,3.62.88,5.43l.13.82c.03.18-.1.36-.28.38-.02,0-.04,0-.05,0Z" fill="#1d1d1b"/><path d="M83.51,49.54c-.17,0-.32-.13-.33-.31l-.27-3.25c-.13-.1-.34-.26-.58-.48-.25-.22-.61-.58-.94-1.02-.11-.15-.08-.36.07-.47s.36-.08.47.07c.3.4.63.72.86.93.36.32.64.51.64.52.08.06.14.15.15.25l.28,3.41c.01.18-.12.35-.31.36c0,0-.02,0-.03,0Z" fill="#1d1d1b"/><path d="M88.14,67.51c.15.59.07,1.49-.67,1.67-1,.02-1.22-1.42-1.08-2.17.33-1.44,1.57-.53,1.75.5v0Zm-.62.11c-.17-1.37-1-1.17-.76.14.05.28.36.89.6.84.17-.13.19-.7.16-.98v0Z" fill="#1d1d1b"/><path d="M82.93,31.12c-.15.11-.36.08-.48-.07l.31.13c-1.32.22-2.7.26-3.97.65-.75.25-.55,1.01-.46,1.74.01.07-.02.14-.07.17-.28.2-.48.63-.58,1.03-.18.87-.45,2.94.89,2.82.33-.06.52.4.26.59-1.29,1.16-1.03,3.07.48,4c.04.02.06.07.03.1-.22.3-.26.92-.25,1.29.04.38.36.57.7.65.89-.18,3.02-.43,4.32-.66.19-.04.37.09.4.28.03.2-.12.38-.31.39-1.47.21-2.94.42-4.41.65-.35-.01-.66-.19-.91-.44-.45-.44-.33-1.14-.11-1.62.12-.23.2-.48.5-.63v.14c-.89-.29-1.63-1.07-1.76-2.02-.13-.97.18-1.95.91-2.64c0,0,.28.59.28.59-2.34.34-1.91-3.95-.55-4.77c0,0-.07.19-.07.19-.35-.53-.57-1.15-.32-1.8.14-.36.52-.61.79-.7c1.35-.49,2.76-.55,4.17-.66.12,0,.22.05.29.13.01,0-.47-.07-.47-.06v0c.35-.26.75.27.4.54v0Z" fill="#1d1d1b"/><path d="M81,42.84c-.05-.66.1-1.55.79-1.93.36-.14.85-.09,1.2-.13c0,0-.04.65-.04.65-.88-.27-1.58-1.2-1.47-2.12c0-.81-.06-1.69.25-2.47.24-.63.96-.81,1.56-.74.18.01.2.29.02.33-1.28.45-1.91-1.18-2.23-2.14-.3-.81.48-1.27,1.11-1.48.13-.05.22.14.1.22-.53.53-1.27.33-1.72-.21-.3-.31-.98-1.02-.95-1.44.76.29,1.23,1.06,1.87,1.46.17.07.43.06.66-.02l.1.22c-1,.34-1.22.77-.58,1.67.45.58.63,1.49,1.55,1.4c0,0,.02.33.02.33-.48-.03-1.02.14-1.13.56-.24.69-.15,1.57-.1,2.31-.03.77.42,1.28,1.12,1.51.33.09.29.6-.04.65-.36.08-.65.08-.99.1-.09,0-.15.05-.25.13-.27.29-.5.75-.77,1.19-.03.05-.11.03-.11-.03v0Z" fill="#1d1d1b"/><path d="M79.22,34.56c.78.08,1.24.92,1.01,1.66-.27.8.04,1.53.21,2.32.04.17-.01.41-.13.54-.76.68-.1,1.52.21,2.34.02.04-.03.09-.07.06-.55-.38-.93-.99-.98-1.72-.06-.32.21-.81.41-.99.08-.03-.05-.38-.14-.67-.16-.47-.24-1.01-.18-1.52.06-.44.31-.79.09-1.2-.13-.22-.32-.45-.49-.75-.02-.03,0-.08.05-.07v0Z" fill="#1d1d1b"/></g><g style="mix-blend-mode:multiply"><path d="M77.91,50.04c-.32,1.34-.79,2.58-.16,3.71s1.95,1.8,2.84,2.13s4.01.9,4.01.9c.23.4.49.81.85,1.1s.93.17,1.35,0c.58-.24.33-1.21-.12-1.59" fill="#d9d9d9"/><path d="M86.98,57.43c.49.1.99.2,1.43-.07.11-.07.21-.16.28-.27.07-.12.1-.26.13-.4.03-.16.05-.33,0-.49-.08-.34-.42-.77-.74-.93l-1.64-1.09-5.04-.56" fill="#d9d9d9"/></g><path d="M89.42,53.35c-.2-.44-.61-.8-.96-1.11-1.59-1.44-3.43-2.3-5.34-3.22l5.06,5.04-.24.46-.11-.32-2.89-.81-1.43-1.11-.11.34-5.49-3.92c-.32,1.34-.79,2.58-.16,3.71s1.95,1.8,2.84,2.13s4.01.9,4.01.9c.23.4.49.81.85,1.1.32.25.8.19,1.19.05v0c0,0,1.13-.31,1.13-.31l.05-.09c.26.01.51-.03.75-.17.11-.07.21-.16.28-.27.07-.12.1-.26.13-.4.02-.14.04-.29.01-.43.05.08.36-.14.4-.2.07-.1.11-.22.14-.33.09-.35.04-.71-.11-1.03Z" fill="#fff"/><g><path d="M78.2,48.77c-.9,2.86-.54,4.18,2.3,5.41c1.32.47,2.77.68,4.15.96.09.02.17.07.21.15.27.37.51.73.85.96.26.16.71.03.97-.07.24-.22.01-.74-.03-1.2c0-.02.01-.05.04-.05.81.13,1.1,1.36.4,1.87-1.32.75-2.26.03-2.76-1.21c0,0,.21.15.21.15-.95-.18-1.89-.36-2.84-.58-1.88-.41-4.18-1.47-4.54-3.58-.12-1.08.25-2.03.45-2.94.09-.39.69-.26.59.14v0Z" fill="#1d1d1b"/><path d="M87.21,55.76c.68.1,1.43.16,1.47-.65.05-.45-.24-.7-.42-1.19.91-.01,1.28,1.07,1,1.82-.3.88-1.48.93-2.17.67-.4-.11-.28-.71.13-.66v0Z" fill="#1d1d1b"/><path d="M89.03,55.26c0,0-.1,0-.15-.03-.14-.06-.26-.22-.22-.44.03-.18.21-.3.39-.27.01,0,.02,0,.04,0c.02-.02.04-.03.05-.04.01-.02.04-.1.07-.2.07-.25.03-.54-.09-.81-.17-.36-.53-.69-.85-.97-1.52-1.38-3.24-2.21-5.06-3.08l-.24-.11c-.17-.08-.24-.28-.16-.45s.28-.24.45-.16l.24.11c1.86.9,3.63,1.75,5.18,3.16.4.36.81.73,1.04,1.22.19.41.24.86.13,1.26-.05.18-.11.32-.19.44-.03.04-.34.36-.64.36Z" fill="#1d1d1b"/></g><g><path d="M110.49,44.95c2.08-.76,3.42,1.3,3.44,3.16.17,1.77-.86,3.49-2.11,4.63-.81.76-1.65,1.47-2.5,2.18l.11-.23c.04.39.05.82-.05,1.26-.15.8-.99,1.17-1.74,1.17-.86-.1-1.23-1.31-.59-1.82.02-.02.05,0,.06.02.19.42.26.98.57,1.06.28-.04.73-.16.88-.42.18-.37.21-.8.26-1.26c0-.09.04-.17.1-.23c1.53-1.41,3.45-2.74,4.08-4.8.46-1.79-.24-4.48-2.48-4.45-.15,0-.17-.22-.04-.26v0Z" fill="#1d1d1b"/><path d="M107.47,56.78c-.47.57-1.52,1.12-2.22.5-.62-.52-.84-1.64-.04-2.08.08.52-.04.87.22,1.24.23.3.44.46.86.3.22-.09.46-.27.73-.47.32-.25.73.23.44.51v0Z" fill="#1d1d1b"/><path d="M105.12,52.43c-.29,1.21-1.45,2.7-.41,3.79-.04.01.18.09.2.1.08.04.07,0,.04.09-.02.09.07-.07.08-.08.06-.06.13.06.14.12-.03.12-.12.15-.15.16-1.12.44-1.69-1.2-1.45-2.04.17-.89.57-1.65.94-2.45.08-.17.28-.23.45-.15s.23.29.15.45v0Z" fill="#1d1d1b"/></g><path d="M96.76,17.93c0,.58-.67,1.64-1.51,1.64s-1.51-1.05-1.51-1.64.67-.74,1.51-.74s1.51.15,1.51.74Z" fill="#1d1d1b"/><path d="M95.32,20.26c.2.29.44,4.01-.22,3.26-.14-.54-.17-1.08-.15-1.63.02-.54.07-1.09.22-1.63.02-.07.13-.07.15,0v0Z" fill="#1d1d1b"/><path d="M95.58,24.53c.06,2.09-1.78,3.96-3.88,3.92-2.03.07-4.07-1.86-3.65-3.92.02-.12.2-.11.22,0c.68,4.1,6.33,4.28,6.64,0c0-.44.67-.44.67,0v0Z" fill="#1d1d1b"/><path d="M95.59,24.53c.31,4.28,5.96,4.1,6.64,0c.02-.12.2-.11.22,0c.42,2.06-1.62,3.99-3.65,3.92-2.1.04-3.93-1.84-3.88-3.92c0-.44.66-.44.67,0v0Z" fill="#1d1d1b"/><path d="M96.37,17.82c-.03.1-.33.21-.59.14s-.37-.29-.35-.39.26-.12.51-.06.45.2.42.3Z" fill="#fff"/><ellipse rx="1.16" ry="1.1" transform="translate(92.98 14.55)" fill="#1d1d1b"/><ellipse rx="1.16" ry="1.1" transform="translate(97.53 14.55)" fill="#1d1d1b"/><ellipse rx="0.24" ry="0.22" transform="translate(93.37 14.05)" fill="#fff"/><ellipse rx="0.24" ry="0.22" transform="translate(97.94 14.05)" fill="#fff"/><path d="M105.33,22.24c4.53-2.65,9.56-4.43,14.71-5.38.02,0,.03.03,0,.04-5.08,1.21-9.93,3.2-14.46,5.78-.28.16-.53-.27-.25-.44v0Z" fill="#1d1d1b"/><path d="M106.93,24.82c5.08-1.27,10.52-1.1,15.53.39-5.09-1.06-10.35-.98-15.42.09-.31.07-.42-.41-.11-.49v0Z" fill="#1d1d1b"/><path d="M106.94,28.03c4.07,0,8.12,1.18,11.63,3.23-3.68-1.63-7.64-2.53-11.64-2.81-.26-.01-.25-.42.01-.42v0Z" fill="#1d1d1b"/><path d="M81.76,23.21c-3.99-3.67-9.33-5.82-14.78-5.59-.03,0-.04-.05,0-.05c5.48-.55,11.14,1.48,15.13,5.27.23.22-.1.59-.34.37v0Z" fill="#1d1d1b"/><path d="M79.78,25.41c-5.1-1.42-10.44-1.96-15.71-1.25-.02,0-.02-.02,0-.03c5.23-.99,10.76-.79,15.84.83.28.09.15.53-.13.45v0Z" fill="#1d1d1b"/><path d="M80.04,28.32c-3.95.25-7.82,1.4-11.17,3.55c0,0-.02,0,0-.01c1.58-1.22,3.37-2.17,5.25-2.87c1.88-.71,3.89-1.11,5.9-1.17.32-.01.35.49.02.5v0Z" fill="#1d1d1b"/><circle r="0.44" transform="translate(86.98 21.75)" fill="#1d1d1b"/><circle r="0.44" transform="translate(84.96 26.93)" fill="#1d1d1b"/><circle r="0.44" transform="translate(90.56 29.97)" fill="#1d1d1b"/><circle r="0.44" transform="translate(101.48 23.03)" fill="#1d1d1b"/><circle r="0.44" transform="translate(102.34 30.54)" fill="#1d1d1b"/><circle r="0.44" transform="translate(104.84 28.07)" fill="#1d1d1b"/><path d="M91.15,12.32c.04-.73.97-1.2,1.61-.87.06.02.05.11-.01.12-.63.06-1.09.3-1.54.78-.02.02-.06,0-.06-.03v0Z" fill="#1d1d1b"/><path d="M99.44,12.35c-.45-.48-.91-.71-1.54-.78-.22-.15.39-.25.5-.23.52.01,1.07.44,1.1.98c0,.03-.04.05-.06.03v0Z" fill="#1d1d1b"/></g><g id="enKVtYEU6gH225" style="mix-blend-mode:multiply" opacity="0"><circle r="5.14" transform="translate(47.34 24.99)" fill="#e5f6f6"/><path d="M47.76,28.4c-2.64,0-4.48-1.53-4.48-4.17c0-.84-.09-1.64.29-2.32-.7.83-1.13,1.91-1.13,3.08c0,2.64,2.14,4.79,4.79,4.79c1.8,0,3.66-1.06,4.48-2.52-.88,1.04-2.48,1.15-3.95,1.15Z" fill="#b1e1e4"/><path d="M49.04,23.24c.19.15.35.32.53.48.26.24.57.48.94.52.27.03.56-.07.71-.29.24-.35.08-.81-.06-1.16-.39-.93-1.21-1.71-2.23-1.85-.36-.05-.75,0-1.04.23-.15.13-.27.31-.29.51-.04.37.22.7.52.93.24.18.51.34.76.51.06.04.11.08.17.12Z" fill="#fff"/></g><g id="enKVtYEU6gH229" style="mix-blend-mode:multiply" opacity="0"><circle r="3.37" transform="translate(20.63 22.15)" fill="#e5f6f6"/><path d="M20.9,24.39c-1.73,0-2.94-1-2.94-2.73c0-.55-.06-1.07.19-1.52-.46.55-.74,1.25-.74,2.02c0,1.73,1.4,3.14,3.14,3.14c1.18,0,2.4-.69,2.93-1.65-.58.68-1.63.75-2.59.75Z" fill="#b1e1e4"/><path d="M21.74,21.01c.12.1.23.21.35.32.17.16.38.31.62.34.18.02.37-.04.47-.19.16-.23.06-.53-.04-.76-.25-.61-.79-1.12-1.46-1.21-.23-.03-.49,0-.68.15-.1.08-.18.2-.19.33-.03.24.14.46.34.61.16.12.33.22.5.33.04.03.07.05.11.08Z" fill="#fff"/></g><g id="enKVtYEU6gH233" style="mix-blend-mode:multiply" transform="translate(0 18.64)" opacity="0"><circle r="3.97" transform="translate(36.25 8.19)" fill="#e5f6f6"/><path d="M36.58,10.82c-2.04,0-3.46-1.18-3.46-3.22c0-.65-.07-1.26.23-1.8-.54.64-.87,1.47-.87,2.38c0,2.04,1.66,3.7,3.7,3.7c1.39,0,2.83-.82,3.46-1.95-.68.81-1.92.89-3.05.89Z" fill="#b1e1e4"/><path d="M37.57,6.84c.14.12.27.25.41.37.2.19.44.37.73.4.21.02.43-.05.55-.22.19-.27.06-.63-.05-.9-.3-.72-.93-1.32-1.72-1.43-.28-.04-.58,0-.81.18-.12.1-.21.24-.22.39-.03.28.17.54.4.72.19.14.39.26.58.39.04.03.09.06.13.1Z" fill="#fff"/></g><g id="enKVtYEU6gH237" style="mix-blend-mode:multiply" opacity="0"><circle r="4.52" transform="translate(134.67 41.52)" fill="#e5f6f6"/><path d="M135.04,44.52c-2.32,0-3.94-1.34-3.94-3.66c0-.74-.08-1.44.26-2.04-.62.73-.99,1.68-.99,2.71c0,2.32,1.88,4.21,4.21,4.21c1.58,0,3.21-.93,3.93-2.22-.77.92-2.18,1.01-3.47,1.01Z" fill="#b1e1e4"/><path d="M136.16,39.98c.16.13.31.28.47.42.23.21.5.42.83.45.23.02.49-.06.63-.25.21-.3.07-.71-.05-1.02-.34-.82-1.06-1.5-1.96-1.63-.31-.04-.66,0-.92.21-.14.11-.23.27-.26.45-.04.32.19.62.45.81.21.16.45.3.66.45.05.03.1.07.15.11Z" fill="#fff"/></g><g id="enKVtYEU6gH241" style="mix-blend-mode:multiply" opacity="0"><circle r="3.01" transform="translate(147.18 58.06)" fill="#e5f6f6"/><path d="M147.43,60.05c-1.55,0-2.62-.89-2.62-2.44c0-.49-.05-.96.17-1.36-.41.49-.66,1.12-.66,1.8c0,1.55,1.25,2.8,2.8,2.8c1.05,0,2.14-.62,2.62-1.48-.51.61-1.45.67-2.31.67Z" fill="#b1e1e4"/><path d="M148.18,57.04c.11.09.21.19.31.28.15.14.34.28.55.3.16.02.33-.04.42-.17.14-.2.05-.47-.04-.68-.23-.54-.71-1-1.3-1.08-.21-.03-.44,0-.61.14-.09.07-.16.18-.17.3-.03.22.13.41.3.54.14.11.3.2.44.3.03.02.07.05.1.07Z" fill="#fff"/></g><g id="enKVtYEU6gH245" style="mix-blend-mode:multiply" opacity="0"><circle r="3.01" transform="translate(43.28 22.05)" fill="#e5f6f6"/><path d="M43.52,24.05c-1.55,0-2.62-.89-2.62-2.44c0-.49-.05-.96.17-1.36-.41.49-.66,1.12-.66,1.8c0,1.55,1.25,2.8,2.8,2.8c1.05,0,2.14-.62,2.62-1.48-.51.61-1.45.67-2.31.67Z" fill="#b1e1e4"/><path d="M44.27,21.03c.11.09.21.19.31.28.15.14.34.28.55.3.16.02.33-.04.42-.17.14-.2.05-.47-.04-.68-.23-.54-.71-1-1.3-1.08-.21-.03-.44,0-.61.14-.09.07-.16.18-.17.3-.03.22.13.41.3.54.14.11.3.2.44.3.03.02.07.05.1.07Z" fill="#fff"/></g><polygon id="enKVtYEU6gH249" points="59.74,18.05 58.91,21.18 61.92,22.41 58.78,21.58 57.55,24.59 58.38,21.45 55.37,20.22 58.51,21.05 59.74,18.05" fill="#fff"/><polygon id="enKVtYEU6gH250" points="30.72,15.13 30.12,17.39 32.28,18.27 30.03,17.67 29.14,19.83 29.74,17.58 27.58,16.7 29.84,17.29 30.72,15.13" fill="#e5f6f6"/><polygon id="enKVtYEU6gH251" points="132.7,51.79 131.71,55.55 135.31,57.03 131.55,56.03 130.07,59.64 131.07,55.87 127.46,54.4 131.23,55.39 132.7,51.79" transform="matrix(0-1 1 0 75.669998 187.099998)" fill="#fff"/><polygon id="enKVtYEU6gH252" points="125.49,18.71 124.92,20.87 126.99,21.71 124.83,21.14 123.99,23.21 124.56,21.05 122.49,20.21 124.65,20.78 125.49,18.71" fill="#fff"/><polygon id="enKVtYEU6gH253" points="120.81,36.26 120.24,38.41 122.3,39.26 120.15,38.69 119.3,40.75 119.87,38.6 117.81,37.75 119.96,38.32 120.81,36.26" transform="translate(0-.15894)" fill="#fff"/></g>
<script><![CDATA[
!function(t,n){"object"==typeof exports&&"undefined"!=typeof module?module.exports=n():"function"==typeof define&&define.amd?define(n):((t="undefined"!=typeof globalThis?globalThis:t||self).__SVGATOR_PLAYER__=t.__SVGATOR_PLAYER__||{},t.__SVGATOR_PLAYER__["5c7f360c"]=n())}(this,(function(){"use strict";function t(t,n){var e=Object.keys(t);if(Object.getOwnPropertySymbols){var r=Object.getOwnPropertySymbols(t);n&&(r=r.filter((function(n){return Object.getOwnPropertyDescriptor(t,n).enumerable}))),e.push.apply(e,r)}return e}function n(n){for(var e=1;e<arguments.length;e++){var r=null!=arguments[e]?arguments[e]:{};e%2?t(Object(r),!0).forEach((function(t){o(n,t,r[t])})):Object.getOwnPropertyDescriptors?Object.defineProperties(n,Object.getOwnPropertyDescriptors(r)):t(Object(r)).forEach((function(t){Object.defineProperty(n,t,Object.getOwnPropertyDescriptor(r,t))}))}return n}function e(t){return(e="function"==typeof Symbol&&"symbol"==typeof Symbol.iterator?function(t){return typeof t}:function(t){return t&&"function"==typeof Symbol&&t.constructor===Symbol&&t!==Symbol.prototype?"symbol":typeof t})(t)}function r(t,n){if(!(t instanceof n))throw new TypeError("Cannot call a class as a function")}function i(t,n){for(var e=0;e<n.length;e++){var r=n[e];r.enumerable=r.enumerable||!1,r.configurable=!0,"value"in r&&(r.writable=!0),Object.defineProperty(t,r.key,r)}}function u(t,n,e){return n&&i(t.prototype,n),e&&i(t,e),t}function o(t,n,e){return n in t?Object.defineProperty(t,n,{value:e,enumerable:!0,configurable:!0,writable:!0}):t[n]=e,t}function a(t){return(a=Object.setPrototypeOf?Object.getPrototypeOf:function(t){return t.__proto__||Object.getPrototypeOf(t)})(t)}function l(t,n){return(l=Object.setPrototypeOf||function(t,n){return t.__proto__=n,t})(t,n)}function s(){if("undefined"==typeof Reflect||!Reflect.construct)return!1;if(Reflect.construct.sham)return!1;if("function"==typeof Proxy)return!0;try{return Boolean.prototype.valueOf.call(Reflect.construct(Boolean,[],(function(){}))),!0}catch(t){return!1}}function f(t,n,e){return(f=s()?Reflect.construct:function(t,n,e){var r=[null];r.push.apply(r,n);var i=new(Function.bind.apply(t,r));return e&&l(i,e.prototype),i}).apply(null,arguments)}function c(t,n){if(n&&("object"==typeof n||"function"==typeof n))return n;if(void 0!==n)throw new TypeError("Derived constructors may only return object or undefined");return function(t){if(void 0===t)throw new ReferenceError("this hasn't been initialised - super() hasn't been called");return t}(t)}function h(t,n,e){return(h="undefined"!=typeof Reflect&&Reflect.get?Reflect.get:function(t,n,e){var r=function(t,n){for(;!Object.prototype.hasOwnProperty.call(t,n)&&null!==(t=a(t)););return t}(t,n);if(r){var i=Object.getOwnPropertyDescriptor(r,n);return i.get?i.get.call(e):i.value}})(t,n,e||t)}function v(t){return function(t){if(Array.isArray(t))return y(t)}(t)||function(t){if("undefined"!=typeof Symbol&&null!=t[Symbol.iterator]||null!=t["@@iterator"])return Array.from(t)}(t)||function(t,n){if(!t)return;if("string"==typeof t)return y(t,n);var e=Object.prototype.toString.call(t).slice(8,-1);"Object"===e&&t.constructor&&(e=t.constructor.name);if("Map"===e||"Set"===e)return Array.from(t);if("Arguments"===e||/^(?:Ui|I)nt(?:8|16|32)(?:Clamped)?Array$/.test(e))return y(t,n)}(t)||function(){throw new TypeError("Invalid attempt to spread non-iterable instance.\nIn order to be iterable, non-array objects must have a [Symbol.iterator]() method.")}()}function y(t,n){(null==n||n>t.length)&&(n=t.length);for(var e=0,r=new Array(n);e<n;e++)r[e]=t[e];return r}Number.isInteger||(Number.isInteger=function(t){return"number"==typeof t&&isFinite(t)&&Math.floor(t)===t}),Number.EPSILON||(Number.EPSILON=2220446049250313e-31);var g=d(Math.pow(10,-6));function d(t){var n=arguments.length>1&&void 0!==arguments[1]?arguments[1]:6;if(Number.isInteger(t))return t;var e=Math.pow(10,n);return Math.round((+t+Number.EPSILON)*e)/e}function p(t,n){var e=arguments.length>2&&void 0!==arguments[2]?arguments[2]:g;return Math.abs(t-n)<e}var m=Math.PI/180;function b(t){return t}function w(t,n,e){var r=1-e;return 3*e*r*(t*r+n*e)+e*e*e}function x(){var t=arguments.length>0&&void 0!==arguments[0]?arguments[0]:0,n=arguments.length>1&&void 0!==arguments[1]?arguments[1]:0,e=arguments.length>2&&void 0!==arguments[2]?arguments[2]:1,r=arguments.length>3&&void 0!==arguments[3]?arguments[3]:1;return t<0||t>1||e<0||e>1?null:p(t,n)&&p(e,r)?b:function(i){if(i<=0)return t>0?i*n/t:0===n&&e>0?i*r/e:0;if(i>=1)return e<1?1+(i-1)*(r-1)/(e-1):1===e&&t<1?1+(i-1)*(n-1)/(t-1):1;for(var u,o=0,a=1;o<a;){var l=w(t,e,u=(o+a)/2);if(p(i,l))break;l<i?o=u:a=u}return w(n,r,u)}}function A(){return 1}function k(t){return 1===t?1:0}function _(){var t=arguments.length>0&&void 0!==arguments[0]?arguments[0]:1,n=arguments.length>1&&void 0!==arguments[1]?arguments[1]:0;if(1===t){if(0===n)return k;if(1===n)return A}var e=1/t;return function(t){return t>=1?1:(t+=n*e)-t%e}}var S=Math.sin,O=Math.cos,j=Math.acos,M=Math.asin,P=Math.tan,E=Math.atan2,I=Math.PI/180,R=180/Math.PI,F=Math.sqrt,N=function(){function t(){var n=arguments.length>0&&void 0!==arguments[0]?arguments[0]:1,e=arguments.length>1&&void 0!==arguments[1]?arguments[1]:0,i=arguments.length>2&&void 0!==arguments[2]?arguments[2]:0,u=arguments.length>3&&void 0!==arguments[3]?arguments[3]:1,o=arguments.length>4&&void 0!==arguments[4]?arguments[4]:0,a=arguments.length>5&&void 0!==arguments[5]?arguments[5]:0;r(this,t),this.m=[n,e,i,u,o,a],this.i=null,this.w=null,this.s=null}return u(t,[{key:"determinant",get:function(){var t=this.m;return t[0]*t[3]-t[1]*t[2]}},{key:"isIdentity",get:function(){if(null===this.i){var t=this.m;this.i=1===t[0]&&0===t[1]&&0===t[2]&&1===t[3]&&0===t[4]&&0===t[5]}return this.i}},{key:"point",value:function(t,n){var e=this.m;return{x:e[0]*t+e[2]*n+e[4],y:e[1]*t+e[3]*n+e[5]}}},{key:"translateSelf",value:function(){var t=arguments.length>0&&void 0!==arguments[0]?arguments[0]:0,n=arguments.length>1&&void 0!==arguments[1]?arguments[1]:0;if(!t&&!n)return this;var e=this.m;return e[4]+=e[0]*t+e[2]*n,e[5]+=e[1]*t+e[3]*n,this.w=this.s=this.i=null,this}},{key:"rotateSelf",value:function(){var t=arguments.length>0&&void 0!==arguments[0]?arguments[0]:0;if(t%=360){var n=S(t*=I),e=O(t),r=this.m,i=r[0],u=r[1];r[0]=i*e+r[2]*n,r[1]=u*e+r[3]*n,r[2]=r[2]*e-i*n,r[3]=r[3]*e-u*n,this.w=this.s=this.i=null}return this}},{key:"scaleSelf",value:function(){var t=arguments.length>0&&void 0!==arguments[0]?arguments[0]:1,n=arguments.length>1&&void 0!==arguments[1]?arguments[1]:1;if(1!==t||1!==n){var e=this.m;e[0]*=t,e[1]*=t,e[2]*=n,e[3]*=n,this.w=this.s=this.i=null}return this}},{key:"skewSelf",value:function(t,n){if(n%=360,(t%=360)||n){var e=this.m,r=e[0],i=e[1],u=e[2],o=e[3];t&&(t=P(t*I),e[2]+=r*t,e[3]+=i*t),n&&(n=P(n*I),e[0]+=u*n,e[1]+=o*n),this.w=this.s=this.i=null}return this}},{key:"resetSelf",value:function(){var t=arguments.length>0&&void 0!==arguments[0]?arguments[0]:1,n=arguments.length>1&&void 0!==arguments[1]?arguments[1]:0,e=arguments.length>2&&void 0!==arguments[2]?arguments[2]:0,r=arguments.length>3&&void 0!==arguments[3]?arguments[3]:1,i=arguments.length>4&&void 0!==arguments[4]?arguments[4]:0,u=arguments.length>5&&void 0!==arguments[5]?arguments[5]:0,o=this.m;return o[0]=t,o[1]=n,o[2]=e,o[3]=r,o[4]=i,o[5]=u,this.w=this.s=this.i=null,this}},{key:"recomposeSelf",value:function(){var t=arguments.length>0&&void 0!==arguments[0]?arguments[0]:null,n=arguments.length>1&&void 0!==arguments[1]?arguments[1]:null,e=arguments.length>2&&void 0!==arguments[2]?arguments[2]:null,r=arguments.length>3&&void 0!==arguments[3]?arguments[3]:null,i=arguments.length>4&&void 0!==arguments[4]?arguments[4]:null;return this.isIdentity||this.resetSelf(),t&&(t.x||t.y)&&this.translateSelf(t.x,t.y),n&&this.rotateSelf(n),e&&(e.x&&this.skewSelf(e.x,0),e.y&&this.skewSelf(0,e.y)),!r||1===r.x&&1===r.y||this.scaleSelf(r.x,r.y),i&&(i.x||i.y)&&this.translateSelf(i.x,i.y),this}},{key:"decompose",value:function(){var t=arguments.length>0&&void 0!==arguments[0]?arguments[0]:0,n=arguments.length>1&&void 0!==arguments[1]?arguments[1]:0,e=this.m,r=e[0]*e[0]+e[1]*e[1],i=[[e[0],e[1]],[e[2],e[3]]],u=F(r);if(0===u)return{origin:{x:d(e[4]),y:d(e[5])},translate:{x:d(t),y:d(n)},scale:{x:0,y:0},skew:{x:0,y:0},rotate:0};i[0][0]/=u,i[0][1]/=u;var o=e[0]*e[3]-e[1]*e[2]<0;o&&(u=-u);var a=i[0][0]*i[1][0]+i[0][1]*i[1][1];i[1][0]-=i[0][0]*a,i[1][1]-=i[0][1]*a;var l=F(i[1][0]*i[1][0]+i[1][1]*i[1][1]);if(0===l)return{origin:{x:d(e[4]),y:d(e[5])},translate:{x:d(t),y:d(n)},scale:{x:d(u),y:0},skew:{x:0,y:0},rotate:0};i[1][0]/=l,i[1][1]/=l,a/=l;var s=0;return i[1][1]<0?(s=j(i[1][1])*R,i[0][1]<0&&(s=360-s)):s=M(i[0][1])*R,o&&(s=-s),a=E(a,F(i[0][0]*i[0][0]+i[0][1]*i[0][1]))*R,o&&(a=-a),{origin:{x:d(e[4]),y:d(e[5])},translate:{x:d(t),y:d(n)},scale:{x:d(u),y:d(l)},skew:{x:d(a),y:0},rotate:d(s)}}},{key:"clone",value:function(){var t=this.m;return new this.constructor(t[0],t[1],t[2],t[3],t[4],t[5])}},{key:"toString",value:function(){var t=arguments.length>0&&void 0!==arguments[0]?arguments[0]:" ";if(null===this.s){var n=this.m.map((function(t){return d(t)}));1===n[0]&&0===n[1]&&0===n[2]&&1===n[3]?this.s="translate("+n[4]+t+n[5]+")":this.s="matrix("+n.join(t)+")"}return this.s}}],[{key:"create",value:function(t){return t?Array.isArray(t)?f(this,v(t)):t instanceof this?t.clone():(new this).recomposeSelf(t.origin,t.rotate,t.skew,t.scale,t.translate):new this}}]),t}();function T(t,n,e){return t>=.5?e:n}function q(t,n,e){return 0===t||n===e?n:t*(e-n)+n}function B(t,n,e){var r=q(t,n,e);return r<=0?0:r}function L(t,n,e){var r=q(t,n,e);return r<=0?0:r>=1?1:r}function C(t,n,e){return 0===t?n:1===t?e:{x:q(t,n.x,e.x),y:q(t,n.y,e.y)}}function D(t,n,e){var r=function(t,n,e){return Math.round(q(t,n,e))}(t,n,e);return r<=0?0:r>=255?255:r}function z(t,n,e){return 0===t?n:1===t?e:{r:D(t,n.r,e.r),g:D(t,n.g,e.g),b:D(t,n.b,e.b),a:q(t,null==n.a?1:n.a,null==e.a?1:e.a)}}function V(t,n){for(var e=[],r=0;r<t;r++)e.push(n);return e}function G(t,n){if(--n<=0)return t;var e=(t=Object.assign([],t)).length;do{for(var r=0;r<e;r++)t.push(t[r])}while(--n>0);return t}var Y,$=function(){function t(n){r(this,t),this.list=n,this.length=n.length}return u(t,[{key:"setAttribute",value:function(t,n){for(var e=this.list,r=0;r<this.length;r++)e[r].setAttribute(t,n)}},{key:"removeAttribute",value:function(t){for(var n=this.list,e=0;e<this.length;e++)n[e].removeAttribute(t)}},{key:"style",value:function(t,n){for(var e=this.list,r=0;r<this.length;r++)e[r].style[t]=n}}]),t}(),U=/-./g,Q=function(t,n){return n.toUpperCase()};function H(t){return"function"==typeof t?t:T}function J(t){return t?"function"==typeof t?t:Array.isArray(t)?function(t){var n=arguments.length>1&&void 0!==arguments[1]?arguments[1]:b;if(!Array.isArray(t))return n;switch(t.length){case 1:return _(t[0])||n;case 2:return _(t[0],t[1])||n;case 4:return x(t[0],t[1],t[2],t[3])||n}return n}(t,null):function(t,n){var e=arguments.length>2&&void 0!==arguments[2]?arguments[2]:b;switch(t){case"linear":return b;case"steps":return _(n.steps||1,n.jump||0)||e;case"bezier":case"cubic-bezier":return x(n.x1||0,n.y1||0,n.x2||0,n.y2||0)||e}return e}(t.type,t.value,null):null}function Z(t,n,e){var r=arguments.length>3&&void 0!==arguments[3]&&arguments[3],i=n.length-1;if(t<=n[0].t)return r?[0,0,n[0].v]:n[0].v;if(t>=n[i].t)return r?[i,1,n[i].v]:n[i].v;var u,o=n[0],a=null;for(u=1;u<=i;u++){if(!(t>n[u].t)){a=n[u];break}o=n[u]}return null==a?r?[i,1,n[i].v]:n[i].v:o.t===a.t?r?[u,1,a.v]:a.v:(t=(t-o.t)/(a.t-o.t),o.e&&(t=o.e(t)),r?[u,t,e(t,o.v,a.v)]:e(t,o.v,a.v))}function K(t,n){var e=arguments.length>2&&void 0!==arguments[2]?arguments[2]:null;return t&&t.length?"function"!=typeof n?null:("function"!=typeof e&&(e=null),function(r){var i=Z(r,t,n);return null!=i&&e&&(i=e(i)),i}):null}function W(t,n){return t.t-n.t}function X(t,n,r,i,u){var o,a="@"===r[0],l="#"===r[0],s=Y[r],f=T;switch(a?(o=r.substr(1),r=o.replace(U,Q)):l&&(r=r.substr(1)),e(s)){case"function":if(f=s(i,u,Z,J,r,a,n,t),l)return f;break;case"string":f=K(i,H(s));break;case"object":if((f=K(i,H(s.i),s.f))&&"function"==typeof s.u)return s.u(n,f,r,a,t)}return f?function(t,n,e){if(arguments.length>3&&void 0!==arguments[3]&&arguments[3])return t instanceof $?function(r){return t.style(n,e(r))}:function(r){return t.style[n]=e(r)};if(Array.isArray(n)){var r=n.length;return function(i){var u=e(i);if(null==u)for(var o=0;o<r;o++)t[o].removeAttribute(n);else for(var a=0;a<r;a++)t[a].setAttribute(n,u)}}return function(r){var i=e(r);null==i?t.removeAttribute(n):t.setAttribute(n,i)}}(n,r,f,a):null}function tt(t,n,r,i){if(!i||"object"!==e(i))return null;var u=null,o=null;return Array.isArray(i)?o=function(t){if(!t||!t.length)return null;for(var n=0;n<t.length;n++)t[n].e&&(t[n].e=J(t[n].e));return t.sort(W)}(i):(o=i.keys,u=i.data||null),o?X(t,n,r,o,u):null}function nt(t,n,e){if(!e)return null;var r=[];for(var i in e)if(e.hasOwnProperty(i)){var u=tt(t,n,i,e[i]);u&&r.push(u)}return r.length?r:null}function et(t,n){if(!n.settings.duration||n.settings.duration<0)return null;var e,r,i,u,o,a=function(t,n){if(!n)return null;var e=[];if(Array.isArray(n))for(var r=n.length,i=0;i<r;i++){var u=n[i];if(2===u.length){var o=null;if("string"==typeof u[0])o=t.getElementById(u[0]);else if(Array.isArray(u[0])){o=[];for(var a=0;a<u[0].length;a++)if("string"==typeof u[0][a]){var l=t.getElementById(u[0][a]);l&&o.push(l)}o=o.length?1===o.length?o[0]:new $(o):null}if(o){var s=nt(t,o,u[1]);s&&(e=e.concat(s))}}}else for(var f in n)if(n.hasOwnProperty(f)){var c=t.getElementById(f);if(c){var h=nt(t,c,n[f]);h&&(e=e.concat(h))}}return e.length?e:null}(t,n.elements);return a?(e=a,r=n.settings,i=r.duration,u=e.length,o=null,function(t,n){var a=r.iterations||1/0,l=(r.alternate&&a%2==0)^r.direction>0?i:0,s=t%i,f=1+(t-s)/i;n*=r.direction,r.alternate&&f%2==0&&(n=-n);var c=!1;if(f>a)s=l,c=!0,-1===r.fill&&(s=r.direction>0?0:i);else if(n<0&&(s=i-s),s===o)return!1;o=s;for(var h=0;h<u;h++)e[h](s);return c}):null}function rt(t,n){if(Y=n,!t||!t.root||!Array.isArray(t.animations))return null;var e=function(t){for(var n=document.getElementsByTagName("svg"),e=0;e<n.length;e++)if(n[e].id===t.root&&!n[e].svgatorAnimation)return n[e].svgatorAnimation=!0,n[e];return null}(t);if(!e)return null;var r=t.animations.map((function(t){return et(e,t)})).filter((function(t){return!!t}));return r.length?{svg:e,animations:r,animationSettings:t.animationSettings,options:t.options||void 0}:null}function it(t){return+("0x"+(t.replace(/[^0-9a-fA-F]+/g,"")||27))}function ut(t,n,e){return!t||!e||n>t.length?t:t.substring(0,n)+ut(t.substring(n+1),e,e)}function ot(t){var n=arguments.length>1&&void 0!==arguments[1]?arguments[1]:27;return!t||t%n?t%n:ot(t/n,n)}function at(t,n,e){if(t&&t.length){var r=it(e),i=it(n),u=ot(r)+5,o=ut(t,ot(r,5),u);return o=o.replace(/\x7c$/g,"==").replace(/\x2f$/g,"="),o=function(t,n,e){var r=+("0x"+t.substring(0,4));t=t.substring(4);for(var i=n%r+e%27,u=[],o=0;o<t.length;o+=2)if("|"!==t[o]){var a=+("0x"+t[o]+t[o+1])-i;u.push(a)}else{var l=+("0x"+t.substring(o+1,o+1+4))-i;o+=3,u.push(l)}return String.fromCharCode.apply(String,u)}(o=(o=atob(o)).replace(/[\x41-\x5A]/g,""),i,r),o=JSON.parse(o)}}var lt=[{key:"alternate",def:!1},{key:"fill",def:1},{key:"iterations",def:0},{key:"direction",def:1},{key:"speed",def:1},{key:"fps",def:100}],st=function(){function t(n,e){var i=this,u=arguments.length>2&&void 0!==arguments[2]?arguments[2]:null;r(this,t),this._id=0,this._running=!1,this._rollingBack=!1,this._animations=n,this._settings=e,(!u||u<"2022-05-02")&&delete this._settings.speed,lt.forEach((function(t){i._settings[t.key]=i._settings[t.key]||t.def})),this.duration=e.duration,this.offset=e.offset||0,this.rollbackStartOffset=0}return u(t,[{key:"alternate",get:function(){return this._settings.alternate}},{key:"fill",get:function(){return this._settings.fill}},{key:"iterations",get:function(){return this._settings.iterations}},{key:"direction",get:function(){return this._settings.direction}},{key:"speed",get:function(){return this._settings.speed}},{key:"fps",get:function(){return this._settings.fps}},{key:"maxFiniteDuration",get:function(){return this.iterations>0?this.iterations*this.duration:this.duration}},{key:"_apply",value:function(t){for(var n=arguments.length>1&&void 0!==arguments[1]?arguments[1]:{},e=this._animations,r=e.length,i=0,u=0;u<r;u++)n[u]?i++:(n[u]=e[u](t,1),n[u]&&i++);return i}},{key:"_rollback",value:function(t){var n=this,e=1/0,r=null;this.rollbackStartOffset=t,this._rollingBack=!0,this._running=!0;this._id=window.requestAnimationFrame((function i(u){if(n._rollingBack){null==r&&(r=u);var o=Math.round(t-(u-r)*n.speed);if(o>n.duration&&e!==1/0){var a=!!n.alternate&&o/n.duration%2>1,l=o%n.duration;o=(l+=a?n.duration:0)||n.duration}var s=(n.fps?1e3/n.fps:0)*n.speed,f=Math.max(0,o);f<=e-s&&(n.offset=f,e=f,n._apply(f));var c=n.iterations>0&&-1===n.fill&&o>=n.maxFiniteDuration;(o<=0||n.offset<o||c)&&n.stop(),n._id=window.requestAnimationFrame(i)}}))}},{key:"_start",value:function(){var t=this,n=arguments.length>0&&void 0!==arguments[0]?arguments[0]:0,e=-1/0,r=null,i={};this._running=!0;var u=function u(o){null==r&&(r=o);var a=Math.round((o-r)*t.speed+n),l=(t.fps?1e3/t.fps:0)*t.speed;if(a>=e+l&&!t._rollingBack&&(t.offset=a,e=a,t._apply(a,i)===t._animations.length))return void t.pause(!0);t._id=window.requestAnimationFrame(u)};this._id=window.requestAnimationFrame(u)}},{key:"_pause",value:function(){this._id&&window.cancelAnimationFrame(this._id),this._running=!1}},{key:"play",value:function(){if(!this._running)return this._rollingBack?this._rollback(this.offset):this._start(this.offset)}},{key:"stop",value:function(){this._pause(),this.offset=0,this.rollbackStartOffset=0,this._rollingBack=!1,this._apply(0)}},{key:"reachedToEnd",value:function(){return this.iterations>0&&this.offset>=this.iterations*this.duration}},{key:"restart",value:function(){var t=arguments.length>0&&void 0!==arguments[0]&&arguments[0];this.stop(t),this.play(t)}},{key:"pause",value:function(){this._pause()}},{key:"reverse",value:function(){this.direction=-this.direction}}],[{key:"build",value:function(t,n){delete t.animationSettings,t.options=at(t.options,t.root,"5c7f360c"),t.animations.map((function(n){n.settings=at(n.s,t.root,"5c7f360c"),delete n.s,t.animationSettings||(t.animationSettings=n.settings)}));var e=t.version;if(!(t=rt(t,n)))return null;var r=t.options||{},i=new this(t.animations,t.animationSettings,e);return{el:t.svg,options:r,player:i}}},{key:"push",value:function(t){return this.build(t)}},{key:"init",value:function(){var t=this,n=window.__SVGATOR_PLAYER__&&window.__SVGATOR_PLAYER__["5c7f360c"];Array.isArray(n)&&n.splice(0).forEach((function(n){return t.build(n)}))}}]),t}();function ft(t){return d(t)+""}function ct(t){var n=arguments.length>1&&void 0!==arguments[1]?arguments[1]:" ";return t&&t.length?t.map(ft).join(n):""}function ht(t){if(!t)return"transparent";if(null==t.a||t.a>=1){var n=function(t){return 1===(t=parseInt(t).toString(16)).length?"0"+t:t},e=function(t){return t.charAt(0)===t.charAt(1)},r=n(t.r),i=n(t.g),u=n(t.b);return e(r)&&e(i)&&e(u)&&(r=r.charAt(0),i=i.charAt(0),u=u.charAt(0)),"#"+r+i+u}return"rgba("+t.r+","+t.g+","+t.b+","+t.a+")"}function vt(t){return t?"url(#"+t+")":"none"}!function(){for(var t=0,n=["ms","moz","webkit","o"],e=0;e<n.length&&!window.requestAnimationFrame;++e)window.requestAnimationFrame=window[n[e]+"RequestAnimationFrame"],window.cancelAnimationFrame=window[n[e]+"CancelAnimationFrame"]||window[n[e]+"CancelRequestAnimationFrame"];window.requestAnimationFrame||(window.requestAnimationFrame=function(n){var e=Date.now(),r=Math.max(0,16-(e-t)),i=window.setTimeout((function(){n(e+r)}),r);return t=e+r,i},window.cancelAnimationFrame=window.clearTimeout)}();var yt={f:null,i:function(t,n,e){return 0===t?n:1===t?e:{x:B(t,n.x,e.x),y:B(t,n.y,e.y)}},u:function(t,n){return function(e){var r=n(e);t.setAttribute("rx",ft(r.x)),t.setAttribute("ry",ft(r.y))}}},gt={f:null,i:function(t,n,e){return 0===t?n:1===t?e:{width:B(t,n.width,e.width),height:B(t,n.height,e.height)}},u:function(t,n){return function(e){var r=n(e);t.setAttribute("width",ft(r.width)),t.setAttribute("height",ft(r.height))}}};Object.freeze({M:2,L:2,Z:0,H:1,V:1,C:6,Q:4,T:2,S:4,A:7});var dt={},pt=null;function mt(t){var n=function(){if(pt)return pt;if("object"!==("undefined"==typeof document?"undefined":e(document))||!document.createElementNS)return{};var t=document.createElementNS("http://www.w3.org/2000/svg","svg");return t&&t.style?(t.style.position="absolute",t.style.opacity="0.01",t.style.zIndex="-9999",t.style.left="-9999px",t.style.width="1px",t.style.height="1px",pt={svg:t}):{}}().svg;if(!n)return function(t){return null};var r=document.createElementNS(n.namespaceURI,"path");r.setAttributeNS(null,"d",t),r.setAttributeNS(null,"fill","none"),r.setAttributeNS(null,"stroke","none"),n.appendChild(r);var i=r.getTotalLength();return function(t){var n=r.getPointAtLength(i*t);return{x:n.x,y:n.y}}}function bt(t){return dt[t]?dt[t]:dt[t]=mt(t)}function wt(t,n,e,r){if(!t||!r)return!1;var i=["M",t.x,t.y];if(n&&e&&(i.push("C"),i.push(n.x),i.push(n.y),i.push(e.x),i.push(e.y)),n?!e:e){var u=n||e;i.push("Q"),i.push(u.x),i.push(u.y)}return n||e||i.push("L"),i.push(r.x),i.push(r.y),i.join(" ")}function xt(t,n,e,r){var i=arguments.length>4&&void 0!==arguments[4]?arguments[4]:1,u=wt(t,n,e,r),o=bt(u);try{return o(i)}catch(t){return null}}function At(t,n,e){return t+(n-t)*e}function kt(t,n,e){var r=arguments.length>3&&void 0!==arguments[3]&&arguments[3],i={x:At(t.x,n.x,e),y:At(t.y,n.y,e)};return r&&(i.a=_t(t,n)),i}function _t(t,n){return Math.atan2(n.y-t.y,n.x-t.x)}function St(t,n,e,r){var i=1-r;return i*i*t+2*i*r*n+r*r*e}function Ot(t,n,e,r){return 2*(1-r)*(n-t)+2*r*(e-n)}function jt(t,n,e,r){var i=arguments.length>4&&void 0!==arguments[4]&&arguments[4],u=xt(t,n,null,e,r);return u||(u={x:St(t.x,n.x,e.x,r),y:St(t.y,n.y,e.y,r)}),i&&(u.a=Mt(t,n,e,r)),u}function Mt(t,n,e,r){return Math.atan2(Ot(t.y,n.y,e.y,r),Ot(t.x,n.x,e.x,r))}function Pt(t,n,e,r,i){var u=i*i;return i*u*(r-t+3*(n-e))+3*u*(t+e-2*n)+3*i*(n-t)+t}function Et(t,n,e,r,i){var u=1-i;return 3*(u*u*(n-t)+2*u*i*(e-n)+i*i*(r-e))}function It(t,n,e,r,i){var u=arguments.length>5&&void 0!==arguments[5]&&arguments[5],o=xt(t,n,e,r,i);return o||(o={x:Pt(t.x,n.x,e.x,r.x,i),y:Pt(t.y,n.y,e.y,r.y,i)}),u&&(o.a=Rt(t,n,e,r,i)),o}function Rt(t,n,e,r,i){return Math.atan2(Et(t.y,n.y,e.y,r.y,i),Et(t.x,n.x,e.x,r.x,i))}function Ft(t,n,e){var r=arguments.length>3&&void 0!==arguments[3]&&arguments[3];if(Tt(n)){if(qt(e))return jt(n,e.start,e,t,r)}else if(Tt(e)){if(Bt(n))return jt(n,n.end,e,t,r)}else{if(Bt(n))return qt(e)?It(n,n.end,e.start,e,t,r):jt(n,n.end,e,t,r);if(qt(e))return jt(n,e.start,e,t,r)}return kt(n,e,t,r)}function Nt(t,n,e){var r=Ft(t,n,e,!0);return r.a=function(t){return arguments.length>1&&void 0!==arguments[1]&&arguments[1]?t+Math.PI:t}(r.a)/m,r}function Tt(t){return!t.type||"corner"===t.type}function qt(t){return null!=t.start&&!Tt(t)}function Bt(t){return null!=t.end&&!Tt(t)}var Lt=new N;var Ct={f:ft,i:q},Dt={f:ft,i:L};function zt(t,n,e){return t.map((function(t){return function(t,n,e){var r=t.v;if(!r||"g"!==r.t||r.s||!r.v||!r.r)return t;var i=e.getElementById(r.r),u=i&&i.querySelectorAll("stop")||[];return r.s=r.v.map((function(t,n){var e=u[n]&&u[n].getAttribute("offset");return{c:t,o:e=d(parseInt(e)/100)}})),delete r.v,t}(t,0,e)}))}var Vt={gt:"gradientTransform",c:{x:"cx",y:"cy"},rd:"r",f:{x:"x1",y:"y1"},to:{x:"x2",y:"y2"}};function Gt(t,n,r,i,u,o,a,l){return zt(t,0,l),n=function(t,n,e){for(var r,i,u,o=t.length-1,a={},l=0;l<=o;l++)(r=t[l]).e&&(r.e=n(r.e)),r.v&&"g"===(i=r.v).t&&i.r&&(u=e.getElementById(i.r))&&(a[i.r]={e:u,s:u.querySelectorAll("stop")});return a}(t,i,l),function(i){var u=r(i,t,Yt);if(!u)return"none";if("c"===u.t)return ht(u.v);if("g"===u.t){if(!n[u.r])return vt(u.r);var o=n[u.r];return function(t,n){for(var e=t.s,r=e.length;r<n.length;r++){var i=e[e.length-1].cloneNode();i.id=Qt(i.id),t.e.appendChild(i),e=t.s=t.e.querySelectorAll("stop")}for(var u=0,o=e.length,a=n.length-1;u<o;u++)e[u].setAttribute("stop-color",ht(n[Math.min(u,a)].c)),e[u].setAttribute("offset",n[Math.min(u,a)].o)}(o,u.s),Object.keys(Vt).forEach((function(t){if(void 0!==u[t])if("object"!==e(Vt[t])){var n,r="gt"===t?(n=u[t],Array.isArray(n)?"matrix("+n.join(" ")+")":""):u[t],i=Vt[t];o.e.setAttribute(i,r)}else Object.keys(Vt[t]).forEach((function(n){if(void 0!==u[t][n]){var e=u[t][n],r=Vt[t][n];o.e.setAttribute(r,e)}}))})),vt(u.r)}return"none"}}function Yt(t,e,r){if(0===t)return e;if(1===t)return r;if(e&&r){var i=e.t;if(i===r.t)switch(e.t){case"c":return{t:i,v:z(t,e.v,r.v)};case"g":if(e.r===r.r){var u={t:i,s:$t(t,e.s,r.s),r:e.r};return e.gt&&r.gt&&(u.gt=function(t,n,e){var r=n.length;if(r!==e.length)return T(t,n,e);for(var i=new Array(r),u=0;u<r;u++)i[u]=q(t,n[u],e[u]);return i}(t,e.gt,r.gt)),e.c?(u.c=C(t,e.c,r.c),u.rd=B(t,e.rd,r.rd)):e.f&&(u.f=C(t,e.f,r.f),u.to=C(t,e.to,r.to)),u}}if("c"===e.t&&"g"===r.t||"c"===r.t&&"g"===e.t){var o="c"===e.t?e:r,a="g"===e.t?n({},e):n({},r),l=a.s.map((function(t){return{c:o.v,o:t.o}}));return a.s="c"===e.t?$t(t,l,a.s):$t(t,a.s,l),a}}return T(t,e,r)}function $t(t,n,e){if(n.length===e.length)return n.map((function(n,r){return Ut(t,n,e[r])}));for(var r=Math.max(n.length,e.length),i=[],u=0;u<r;u++){var o=Ut(t,n[Math.min(u,n.length-1)],e[Math.min(u,e.length-1)]);i.push(o)}return i}function Ut(t,n,e){return{o:L(t,n.o,e.o||0),c:z(t,n.c,e.c||{})}}function Qt(t){return t.replace(/-fill-([0-9]+)$/,(function(t,n){return"-fill-"+(+n+1)}))}var Ht={fill:Gt,"fill-opacity":Dt,stroke:Gt,"stroke-opacity":Dt,"stroke-width":Ct,"stroke-dashoffset":{f:ft,i:q},"stroke-dasharray":{f:function(t){var n=arguments.length>1&&void 0!==arguments[1]?arguments[1]:" ";return t&&t.length>0&&(t=t.map((function(t){return d(t,4)}))),ct(t,n)},i:function(t,n,e){var r,i,u,o=n.length,a=e.length;if(o!==a)if(0===o)n=V(o=a,0);else if(0===a)a=o,e=V(o,0);else{var l=(u=(r=o)*(i=a)/function(t,n){for(var e;n;)e=n,n=t%n,t=e;return t||1}(r,i))<0?-u:u;n=G(n,Math.floor(l/o)),e=G(e,Math.floor(l/a)),o=a=l}for(var s=[],f=0;f<o;f++)s.push(d(B(t,n[f],e[f])));return s}},opacity:Dt,transform:function(t,n,r,i){if(!(t=function(t,n){if(!t||"object"!==e(t))return null;var r=!1;for(var i in t)t.hasOwnProperty(i)&&(t[i]&&t[i].length?(t[i].forEach((function(t){t.e&&(t.e=n(t.e))})),r=!0):delete t[i]);return r?t:null}(t,i)))return null;var u=function(e,i,u){var o=arguments.length>3&&void 0!==arguments[3]?arguments[3]:null;return t[e]?r(i,t[e],u):n&&n[e]?n[e]:o};return n&&n.a&&t.o?function(n){var e=r(n,t.o,Nt);return Lt.recomposeSelf(e,u("r",n,q,0)+e.a,u("k",n,C),u("s",n,C),u("t",n,C)).toString()}:function(t){return Lt.recomposeSelf(u("o",t,Ft,null),u("r",t,q,0),u("k",t,C),u("s",t,C),u("t",t,C)).toString()}},r:Ct,"#size":gt,"#radius":yt,_:function(t,n){if(Array.isArray(t))for(var e=0;e<t.length;e++)this[t[e]]=n;else this[t]=n}},Jt=function(t){!function(t,n){if("function"!=typeof n&&null!==n)throw new TypeError("Super expression must either be null or a function");t.prototype=Object.create(n&&n.prototype,{constructor:{value:t,writable:!0,configurable:!0}}),n&&l(t,n)}(o,t);var n,e,i=(n=o,e=s(),function(){var t,r=a(n);if(e){var i=a(this).constructor;t=Reflect.construct(r,arguments,i)}else t=r.apply(this,arguments);return c(this,t)});function o(){return r(this,o),i.apply(this,arguments)}return u(o,null,[{key:"build",value:function(t){var n=h(a(o),"build",this).call(this,t,Ht);if(!n)return null;n.el,n.options,function(t,n,e){t.play()}(n.player)}}]),o}(st);return Jt.init(),Jt}));
(function(s,i,o,w,a,b){w[o]=w[o]||{};w[o][s]=w[o][s]||[];w[o][s].push(i);})('5c7f360c',{"root":"enKVtYEU6gH1","version":"2022-05-04","animations":[{"elements":{"enKVtYEU6gH4":{"transform":{"data":{"t":{"x":-76.349995,"y":-9.6}},"keys":{"o":[{"t":300,"v":{"x":76.349995,"y":26.6,"type":"corner"}},{"t":1800,"v":{"x":76.349995,"y":3.6,"type":"corner"}}]}},"opacity":[{"t":300,"v":0},{"t":400,"v":1},{"t":1700,"v":1},{"t":1800,"v":0}]},"enKVtYEU6gH225":{"transform":{"data":{"t":{"x":-47.34,"y":-24.990001}},"keys":{"o":[{"t":1700,"v":{"x":47.34,"y":24.990001,"type":"corner"}},{"t":3000,"v":{"x":47.34,"y":6.990001,"type":"corner"}}]}},"opacity":[{"t":1700,"v":0},{"t":1900,"v":1},{"t":2900,"v":1},{"t":3000,"v":0}]},"enKVtYEU6gH229":{"transform":{"data":{"t":{"x":-20.629998,"y":-22.149999}},"keys":{"o":[{"t":500,"v":{"x":20.629998,"y":22.149999,"type":"corner"}},{"t":2800,"v":{"x":20.629998,"y":4.149999,"type":"corner"}}]}},"opacity":[{"t":400,"v":0},{"t":600,"v":1},{"t":2700,"v":1},{"t":2800,"v":0}]},"enKVtYEU6gH233":{"transform":{"data":{"t":{"x":-36.249998,"y":-8.19}},"keys":{"o":[{"t":0,"v":{"x":36.249998,"y":26.83,"type":"corner"}},{"t":1700,"v":{"x":36.249998,"y":7.83,"type":"corner"}}]}},"opacity":[{"t":0,"v":0},{"t":100,"v":1},{"t":1600,"v":1},{"t":1700,"v":0}]},"enKVtYEU6gH237":{"transform":{"data":{"t":{"x":-134.669991,"y":-41.52}},"keys":{"o":[{"t":200,"v":{"x":134.669991,"y":41.52,"type":"corner"}},{"t":3000,"v":{"x":134.669991,"y":7.52,"type":"corner"}}]}},"opacity":[{"t":200,"v":0},{"t":400,"v":1},{"t":2700,"v":1},{"t":3000,"v":0}]},"enKVtYEU6gH241":{"transform":{"data":{"t":{"x":-147.18,"y":-58.060003}},"keys":{"o":[{"t":1300,"v":{"x":147.18,"y":58.060003,"type":"corner"}},{"t":2600,"v":{"x":147.18,"y":18.060003,"type":"corner"}}]}},"opacity":[{"t":1300,"v":0},{"t":1400,"v":1},{"t":2500,"v":1},{"t":2600,"v":0}]},"enKVtYEU6gH245":{"transform":{"data":{"t":{"x":-43.280001,"y":-22.049999}},"keys":{"o":[{"t":800,"v":{"x":43.280001,"y":22.049999,"type":"corner"}},{"t":2500,"v":{"x":43.280001,"y":4.049999,"type":"corner"}}]}},"opacity":[{"t":800,"v":0},{"t":900,"v":1},{"t":2200,"v":1},{"t":2500,"v":0}]},"enKVtYEU6gH249":{"transform":{"data":{"o":{"x":58.644999,"y":21.32,"type":"corner"},"t":{"x":-58.644999,"y":-21.32}},"keys":{"r":[{"t":0,"v":0},{"t":400,"v":30},{"t":1000,"v":60},{"t":1600,"v":90},{"t":2100,"v":120},{"t":2600,"v":165},{"t":3000,"v":180}]}}},"enKVtYEU6gH250":{"transform":{"data":{"o":{"x":29.929999,"y":17.48,"type":"corner"},"t":{"x":-29.929999,"y":-17.48}},"keys":{"r":[{"t":0,"v":0},{"t":3000,"v":269.999999}]}}},"enKVtYEU6gH251":{"transform":{"data":{"o":{"x":131.384998,"y":55.715,"type":"corner"},"t":{"x":-131.384998,"y":-55.715}},"keys":{"r":[{"t":0,"v":270},{"t":3000,"v":0}]}}},"enKVtYEU6gH252":{"transform":{"data":{"o":{"x":124.739998,"y":20.959999,"type":"corner"},"t":{"x":-124.739998,"y":-20.959999}},"keys":{"r":[{"t":0,"v":0},{"t":1000,"v":255},{"t":2000,"v":495},{"t":3000,"v":720}]}}},"enKVtYEU6gH253":{"transform":{"data":{"o":{"x":120.055,"y":38.346059,"type":"corner"},"t":{"x":-120.055,"y":-38.504999}},"keys":{"r":[{"t":0,"v":0},{"t":1500,"v":269.999998},{"t":3000,"v":539.999998}]}}}},"s":"MUDA1ZDk4RjNmODE5MjXhmN2U5MTg2OGM4YjNSmTzU3NTBTNGQ0ZDRkONDlXM2Y4MUk4NjhmONDI4ME85MTg2OGM4YjFNmNTc0ZTQ5M2Y4NjkJxODI4ZjdlOTE4NjhjBOGJVOTBIM2Y1NzRkNNDkzZjgzRTg2UDg5ODDkzZjU3NGU0OTNmN2UP4OVg5MTgyOGY4YjdlFOTE4MjNmNTc4MzdlOPDk5MDgyNDkzZjkwQjRhkODI4MjgxRjNmVDUW3WTRlQzQ5M2Y4MzhkJOTBYM2Y1NzRlNGQ0ZSDlh"}],"options":"MQDAxMDg4MmY4MDgxNmWU3ZjgxMmY0NzJmNzkK3YzZlNzEyZkY4YQ|"},'__SVGATOR_PLAYER__',window)
]]></script>
</svg>
